M48
; DRILL file {KiCad (5.1.5)-3} date 1-7-2020 02:11:09
; FORMAT={-:-/ absolute / inch / decimal}
; #@! TF.CreationDate,2020-07-01T02:11:09+02:00
; #@! TF.GenerationSoftware,Kicad,Pcbnew,(5.1.5)-3
FMAT,2
INCH
T1C0.0157
T2C0.0197
T3C0.0295
T4C0.0315
T5C0.0374
T6C0.0394
T7C0.1181
%
G90
G05
T1
X3.0827Y-4.5315
X3.3189Y-4.3898
X3.3268Y-4.9882
X3.3307Y-4.7087
X3.3346Y-4.0787
X3.6024Y-4.6929
X3.6496Y-4.9843
X3.6732Y-4.563
X3.8898Y-4.7165
X3.937Y-4.9921
X3.9488Y-4.2992
X3.9528Y-4.0709
X3.9724Y-4.6063
X3.9843Y-4.7047
X3.9882Y-4.374
X4.0335Y-4.3293
X4.0354Y-4.5079
X4.1614Y-4.0748
X4.1693Y-4.7008
X4.2087Y-4.1614
X4.2126Y-4.9921
X4.4173Y-4.0709
X4.4252Y-4.3031
X4.4961Y-4.3937
X4.5276Y-4.6457
X4.6969Y-4.0748
X4.7441Y-4.3858
X4.7441Y-4.9764
X4.7835Y-4.6654
X4.9764Y-4.3898
X4.9764Y-4.6614
T2
X4.7933Y-4.8819
X4.8193Y-4.8193
X4.8193Y-4.9445
X4.8819Y-4.7933
X4.8819Y-4.9705
X4.9445Y-4.8193
X4.9445Y-4.9445
X4.9705Y-4.8819
X3.1004Y-4.1732
X3.1263Y-4.1106
X3.1263Y-4.2359
X3.189Y-4.0846
X3.189Y-4.2618
X3.2516Y-4.1106
X3.2516Y-4.2359
X3.2776Y-4.1732
X4.7933Y-4.1732
X4.8193Y-4.1106
X4.8193Y-4.2359
X4.8819Y-4.0846
X4.8819Y-4.2618
X4.9445Y-4.1106
X4.9445Y-4.2359
X4.9705Y-4.1732
X3.1004Y-4.8819
X3.1263Y-4.8193
X3.1263Y-4.9445
X3.189Y-4.7933
X3.189Y-4.9705
X3.2516Y-4.8193
X3.2516Y-4.9445
X3.2776Y-4.8819
T3
X3.5039Y-4.837
X3.5039Y-4.887
X3.5039Y-4.937
X3.4764Y-4.5984
X3.4764Y-4.6484
X3.4764Y-4.6984
T4
X3.3386Y-4.4528
X3.6386Y-4.4528
X3.9732Y-4.8425
X4.0732Y-4.8425
X4.1732Y-4.8425
X3.1299Y-4.6063
X3.2283Y-4.6063
X3.7677Y-4.5118
X3.8661Y-4.5118
X3.1299Y-4.4488
X3.2283Y-4.4488
X4.0551Y-4.2087
X4.1551Y-4.2087
X4.2551Y-4.2087
X4.5669Y-4.3307
X4.6654Y-4.3307
X3.7795Y-4.6606
X3.7795Y-4.9606
X4.8425Y-4.4488
X4.8425Y-4.5276
X4.3701Y-4.1732
X4.6701Y-4.1732
T5
X3.4803Y-4.2126
X3.5787Y-4.2126
X3.6772Y-4.2126
X3.7756Y-4.2126
X4.4094Y-4.7953
X4.5079Y-4.7953
X4.6063Y-4.7953
T6
X4.2362Y-4.4724
X4.3346Y-4.4724
T7
X4.8819Y-4.8819
X3.189Y-4.1732
X4.8819Y-4.1732
X3.189Y-4.8819
T0
M30
