G04 #@! TF.GenerationSoftware,KiCad,Pcbnew,(5.1.5)-3*
G04 #@! TF.CreationDate,2020-07-01T02:10:36+02:00*
G04 #@! TF.ProjectId,GermaniumFuzz,4765726d-616e-4697-956d-46757a7a2e6b,rev?*
G04 #@! TF.SameCoordinates,Original*
G04 #@! TF.FileFunction,Soldermask,Bot*
G04 #@! TF.FilePolarity,Negative*
%FSLAX46Y46*%
G04 Gerber Fmt 4.6, Leading zero omitted, Abs format (unit mm)*
G04 Created by KiCad (PCBNEW (5.1.5)-3) date 2020-07-01 02:10:36*
%MOMM*%
%LPD*%
G04 APERTURE LIST*
%ADD10C,0.100000*%
G04 APERTURE END LIST*
D10*
G36*
X124889943Y-121066248D02*
G01*
X125445189Y-121296238D01*
X125693347Y-121462052D01*
X125944899Y-121630134D01*
X126369866Y-122055101D01*
X126514437Y-122271467D01*
X126703762Y-122554811D01*
X126933752Y-123110057D01*
X127051000Y-123699501D01*
X127051000Y-124300499D01*
X126933752Y-124889943D01*
X126703762Y-125445189D01*
X126694241Y-125459438D01*
X126369866Y-125944899D01*
X125944899Y-126369866D01*
X125804573Y-126463629D01*
X125445189Y-126703762D01*
X124889943Y-126933752D01*
X124300499Y-127051000D01*
X123699501Y-127051000D01*
X123110057Y-126933752D01*
X122554811Y-126703762D01*
X122195427Y-126463629D01*
X122055101Y-126369866D01*
X121630134Y-125944899D01*
X121305759Y-125459438D01*
X121296238Y-125445189D01*
X121066248Y-124889943D01*
X120949000Y-124300499D01*
X120949000Y-123699501D01*
X121066248Y-123110057D01*
X121296238Y-122554811D01*
X121485563Y-122271467D01*
X121630134Y-122055101D01*
X122055101Y-121630134D01*
X122306653Y-121462052D01*
X122554811Y-121296238D01*
X123110057Y-121066248D01*
X123699501Y-120949000D01*
X124300499Y-120949000D01*
X124889943Y-121066248D01*
G37*
G36*
X81889943Y-121066248D02*
G01*
X82445189Y-121296238D01*
X82693347Y-121462052D01*
X82944899Y-121630134D01*
X83369866Y-122055101D01*
X83514437Y-122271467D01*
X83703762Y-122554811D01*
X83933752Y-123110057D01*
X84051000Y-123699501D01*
X84051000Y-124300499D01*
X83933752Y-124889943D01*
X83703762Y-125445189D01*
X83694241Y-125459438D01*
X83369866Y-125944899D01*
X82944899Y-126369866D01*
X82804573Y-126463629D01*
X82445189Y-126703762D01*
X81889943Y-126933752D01*
X81300499Y-127051000D01*
X80699501Y-127051000D01*
X80110057Y-126933752D01*
X79554811Y-126703762D01*
X79195427Y-126463629D01*
X79055101Y-126369866D01*
X78630134Y-125944899D01*
X78305759Y-125459438D01*
X78296238Y-125445189D01*
X78066248Y-124889943D01*
X77949000Y-124300499D01*
X77949000Y-123699501D01*
X78066248Y-123110057D01*
X78296238Y-122554811D01*
X78485563Y-122271467D01*
X78630134Y-122055101D01*
X79055101Y-121630134D01*
X79306653Y-121462052D01*
X79554811Y-121296238D01*
X80110057Y-121066248D01*
X80699501Y-120949000D01*
X81300499Y-120949000D01*
X81889943Y-121066248D01*
G37*
G36*
X96248228Y-125181703D02*
G01*
X96403100Y-125245853D01*
X96542481Y-125338985D01*
X96661015Y-125457519D01*
X96754147Y-125596900D01*
X96818297Y-125751772D01*
X96851000Y-125916184D01*
X96851000Y-126083816D01*
X96818297Y-126248228D01*
X96754147Y-126403100D01*
X96661015Y-126542481D01*
X96542481Y-126661015D01*
X96403100Y-126754147D01*
X96248228Y-126818297D01*
X96083816Y-126851000D01*
X95916184Y-126851000D01*
X95751772Y-126818297D01*
X95596900Y-126754147D01*
X95457519Y-126661015D01*
X95338985Y-126542481D01*
X95245853Y-126403100D01*
X95181703Y-126248228D01*
X95149000Y-126083816D01*
X95149000Y-125916184D01*
X95181703Y-125751772D01*
X95245853Y-125596900D01*
X95338985Y-125457519D01*
X95457519Y-125338985D01*
X95596900Y-125245853D01*
X95751772Y-125181703D01*
X95916184Y-125149000D01*
X96083816Y-125149000D01*
X96248228Y-125181703D01*
G37*
G36*
X89337916Y-122292334D02*
G01*
X89446492Y-122325271D01*
X89446495Y-122325272D01*
X89482601Y-122344571D01*
X89546557Y-122378756D01*
X89634264Y-122450736D01*
X89706244Y-122538443D01*
X89720538Y-122565186D01*
X89759728Y-122638505D01*
X89759729Y-122638508D01*
X89792666Y-122747084D01*
X89803787Y-122860000D01*
X89792666Y-122972916D01*
X89761414Y-123075937D01*
X89759728Y-123081495D01*
X89744461Y-123110057D01*
X89706244Y-123181557D01*
X89634264Y-123269264D01*
X89546557Y-123341244D01*
X89465141Y-123384761D01*
X89444766Y-123398375D01*
X89427439Y-123415702D01*
X89413826Y-123436076D01*
X89404448Y-123458715D01*
X89399668Y-123482748D01*
X89399668Y-123507252D01*
X89404448Y-123531285D01*
X89413826Y-123553924D01*
X89427440Y-123574299D01*
X89444767Y-123591626D01*
X89465141Y-123605239D01*
X89546557Y-123648756D01*
X89634264Y-123720736D01*
X89706244Y-123808443D01*
X89738317Y-123868448D01*
X89759728Y-123908505D01*
X89759729Y-123908508D01*
X89792666Y-124017084D01*
X89803787Y-124130000D01*
X89792666Y-124242916D01*
X89760086Y-124350314D01*
X89759728Y-124351495D01*
X89740429Y-124387601D01*
X89706244Y-124451557D01*
X89634264Y-124539264D01*
X89557354Y-124602383D01*
X89540035Y-124619702D01*
X89526421Y-124640077D01*
X89517043Y-124662716D01*
X89512263Y-124686749D01*
X89512263Y-124711253D01*
X89517043Y-124735286D01*
X89526421Y-124757925D01*
X89540034Y-124778299D01*
X89557361Y-124795626D01*
X89577736Y-124809240D01*
X89600375Y-124818618D01*
X89624408Y-124823398D01*
X89636660Y-124824000D01*
X89801000Y-124824000D01*
X89801000Y-125976000D01*
X88199000Y-125976000D01*
X88199000Y-124824000D01*
X88363340Y-124824000D01*
X88387726Y-124821598D01*
X88411175Y-124814485D01*
X88432786Y-124802934D01*
X88451728Y-124787389D01*
X88467273Y-124768447D01*
X88478824Y-124746836D01*
X88485937Y-124723387D01*
X88488339Y-124699001D01*
X88485937Y-124674615D01*
X88478824Y-124651166D01*
X88467273Y-124629555D01*
X88451728Y-124610613D01*
X88442655Y-124602391D01*
X88365736Y-124539264D01*
X88293756Y-124451557D01*
X88259571Y-124387601D01*
X88240272Y-124351495D01*
X88239914Y-124350314D01*
X88207334Y-124242916D01*
X88196213Y-124130000D01*
X88207334Y-124017084D01*
X88240271Y-123908508D01*
X88240272Y-123908505D01*
X88261683Y-123868448D01*
X88293756Y-123808443D01*
X88365736Y-123720736D01*
X88453443Y-123648756D01*
X88534859Y-123605239D01*
X88555234Y-123591625D01*
X88572561Y-123574298D01*
X88586174Y-123553924D01*
X88595552Y-123531285D01*
X88600332Y-123507252D01*
X88600332Y-123482748D01*
X88595552Y-123458715D01*
X88586174Y-123436076D01*
X88572560Y-123415701D01*
X88555233Y-123398374D01*
X88534859Y-123384761D01*
X88453443Y-123341244D01*
X88365736Y-123269264D01*
X88293756Y-123181557D01*
X88255539Y-123110057D01*
X88240272Y-123081495D01*
X88238586Y-123075937D01*
X88207334Y-122972916D01*
X88196213Y-122860000D01*
X88207334Y-122747084D01*
X88240271Y-122638508D01*
X88240272Y-122638505D01*
X88279462Y-122565186D01*
X88293756Y-122538443D01*
X88365736Y-122450736D01*
X88453443Y-122378756D01*
X88517399Y-122344571D01*
X88553505Y-122325272D01*
X88553508Y-122325271D01*
X88662084Y-122292334D01*
X88746702Y-122284000D01*
X89253298Y-122284000D01*
X89337916Y-122292334D01*
G37*
G36*
X103585589Y-122238876D02*
G01*
X103684893Y-122258629D01*
X103825206Y-122316748D01*
X103951484Y-122401125D01*
X104058875Y-122508516D01*
X104143252Y-122634794D01*
X104201371Y-122775107D01*
X104218257Y-122860000D01*
X104231000Y-122924062D01*
X104231000Y-123075938D01*
X104224213Y-123110056D01*
X104201371Y-123224893D01*
X104143252Y-123365206D01*
X104058875Y-123491484D01*
X103951484Y-123598875D01*
X103825206Y-123683252D01*
X103684893Y-123741371D01*
X103585589Y-123761124D01*
X103535938Y-123771000D01*
X103384062Y-123771000D01*
X103334411Y-123761124D01*
X103235107Y-123741371D01*
X103094794Y-123683252D01*
X102968516Y-123598875D01*
X102861125Y-123491484D01*
X102776748Y-123365206D01*
X102718629Y-123224893D01*
X102695787Y-123110056D01*
X102689000Y-123075938D01*
X102689000Y-122924062D01*
X102701743Y-122860000D01*
X102718629Y-122775107D01*
X102776748Y-122634794D01*
X102861125Y-122508516D01*
X102968516Y-122401125D01*
X103094794Y-122316748D01*
X103235107Y-122258629D01*
X103334411Y-122238876D01*
X103384062Y-122229000D01*
X103535938Y-122229000D01*
X103585589Y-122238876D01*
G37*
G36*
X106125589Y-122238876D02*
G01*
X106224893Y-122258629D01*
X106365206Y-122316748D01*
X106491484Y-122401125D01*
X106598875Y-122508516D01*
X106683252Y-122634794D01*
X106741371Y-122775107D01*
X106758257Y-122860000D01*
X106771000Y-122924062D01*
X106771000Y-123075938D01*
X106764213Y-123110056D01*
X106741371Y-123224893D01*
X106683252Y-123365206D01*
X106598875Y-123491484D01*
X106491484Y-123598875D01*
X106365206Y-123683252D01*
X106224893Y-123741371D01*
X106125589Y-123761124D01*
X106075938Y-123771000D01*
X105924062Y-123771000D01*
X105874411Y-123761124D01*
X105775107Y-123741371D01*
X105634794Y-123683252D01*
X105508516Y-123598875D01*
X105401125Y-123491484D01*
X105316748Y-123365206D01*
X105258629Y-123224893D01*
X105235787Y-123110056D01*
X105229000Y-123075938D01*
X105229000Y-122924062D01*
X105241743Y-122860000D01*
X105258629Y-122775107D01*
X105316748Y-122634794D01*
X105401125Y-122508516D01*
X105508516Y-122401125D01*
X105634794Y-122316748D01*
X105775107Y-122258629D01*
X105874411Y-122238876D01*
X105924062Y-122229000D01*
X106075938Y-122229000D01*
X106125589Y-122238876D01*
G37*
G36*
X101045589Y-122238876D02*
G01*
X101144893Y-122258629D01*
X101285206Y-122316748D01*
X101411484Y-122401125D01*
X101518875Y-122508516D01*
X101603252Y-122634794D01*
X101661371Y-122775107D01*
X101678257Y-122860000D01*
X101691000Y-122924062D01*
X101691000Y-123075938D01*
X101684213Y-123110056D01*
X101661371Y-123224893D01*
X101603252Y-123365206D01*
X101518875Y-123491484D01*
X101411484Y-123598875D01*
X101285206Y-123683252D01*
X101144893Y-123741371D01*
X101045589Y-123761124D01*
X100995938Y-123771000D01*
X100844062Y-123771000D01*
X100794411Y-123761124D01*
X100695107Y-123741371D01*
X100554794Y-123683252D01*
X100428516Y-123598875D01*
X100321125Y-123491484D01*
X100236748Y-123365206D01*
X100178629Y-123224893D01*
X100155787Y-123110056D01*
X100149000Y-123075938D01*
X100149000Y-122924062D01*
X100161743Y-122860000D01*
X100178629Y-122775107D01*
X100236748Y-122634794D01*
X100321125Y-122508516D01*
X100428516Y-122401125D01*
X100554794Y-122316748D01*
X100695107Y-122258629D01*
X100794411Y-122238876D01*
X100844062Y-122229000D01*
X100995938Y-122229000D01*
X101045589Y-122238876D01*
G37*
G36*
X114676626Y-120787037D02*
G01*
X114846465Y-120838557D01*
X114846467Y-120838558D01*
X115002989Y-120922221D01*
X115140186Y-121034814D01*
X115223448Y-121136271D01*
X115252778Y-121172009D01*
X115336443Y-121328534D01*
X115387963Y-121498373D01*
X115401000Y-121630742D01*
X115401000Y-121969257D01*
X115387963Y-122101626D01*
X115336443Y-122271466D01*
X115252778Y-122427991D01*
X115223448Y-122463729D01*
X115140186Y-122565186D01*
X115045250Y-122643097D01*
X115002991Y-122677778D01*
X114846466Y-122761443D01*
X114676627Y-122812963D01*
X114500000Y-122830359D01*
X114323374Y-122812963D01*
X114153535Y-122761443D01*
X113997010Y-122677778D01*
X113859815Y-122565185D01*
X113747222Y-122427991D01*
X113663557Y-122271466D01*
X113612037Y-122101627D01*
X113605518Y-122035442D01*
X113599000Y-121969260D01*
X113599000Y-121630741D01*
X113612037Y-121498376D01*
X113612037Y-121498374D01*
X113663557Y-121328535D01*
X113747222Y-121172010D01*
X113747223Y-121172009D01*
X113859814Y-121034814D01*
X113964380Y-120949000D01*
X113997009Y-120922222D01*
X114153534Y-120838557D01*
X114323373Y-120787037D01*
X114500000Y-120769641D01*
X114676626Y-120787037D01*
G37*
G36*
X117176626Y-120787037D02*
G01*
X117346465Y-120838557D01*
X117346467Y-120838558D01*
X117502989Y-120922221D01*
X117640186Y-121034814D01*
X117723448Y-121136271D01*
X117752778Y-121172009D01*
X117836443Y-121328534D01*
X117887963Y-121498373D01*
X117901000Y-121630742D01*
X117901000Y-121969257D01*
X117887963Y-122101626D01*
X117836443Y-122271466D01*
X117752778Y-122427991D01*
X117723448Y-122463729D01*
X117640186Y-122565186D01*
X117545250Y-122643097D01*
X117502991Y-122677778D01*
X117346466Y-122761443D01*
X117176627Y-122812963D01*
X117000000Y-122830359D01*
X116823374Y-122812963D01*
X116653535Y-122761443D01*
X116497010Y-122677778D01*
X116359815Y-122565185D01*
X116247222Y-122427991D01*
X116163557Y-122271466D01*
X116112037Y-122101627D01*
X116105518Y-122035442D01*
X116099000Y-121969260D01*
X116099000Y-121630741D01*
X116112037Y-121498376D01*
X116112037Y-121498374D01*
X116163557Y-121328535D01*
X116247222Y-121172010D01*
X116247223Y-121172009D01*
X116359814Y-121034814D01*
X116464380Y-120949000D01*
X116497009Y-120922222D01*
X116653534Y-120838557D01*
X116823373Y-120787037D01*
X117000000Y-120769641D01*
X117176626Y-120787037D01*
G37*
G36*
X112758600Y-120777989D02*
G01*
X112791652Y-120788015D01*
X112822103Y-120804292D01*
X112848799Y-120826201D01*
X112870708Y-120852897D01*
X112886985Y-120883348D01*
X112897011Y-120916400D01*
X112901000Y-120956903D01*
X112901000Y-122643097D01*
X112897011Y-122683600D01*
X112886985Y-122716652D01*
X112870708Y-122747103D01*
X112848799Y-122773799D01*
X112822103Y-122795708D01*
X112791652Y-122811985D01*
X112758600Y-122822011D01*
X112718097Y-122826000D01*
X111281903Y-122826000D01*
X111241400Y-122822011D01*
X111208348Y-122811985D01*
X111177897Y-122795708D01*
X111151201Y-122773799D01*
X111129292Y-122747103D01*
X111113015Y-122716652D01*
X111102989Y-122683600D01*
X111099000Y-122643097D01*
X111099000Y-120956903D01*
X111102989Y-120916400D01*
X111113015Y-120883348D01*
X111129292Y-120852897D01*
X111151201Y-120826201D01*
X111177897Y-120804292D01*
X111208348Y-120788015D01*
X111241400Y-120777989D01*
X111281903Y-120774000D01*
X112718097Y-120774000D01*
X112758600Y-120777989D01*
G37*
G36*
X89101000Y-117376000D02*
G01*
X88936660Y-117376000D01*
X88912274Y-117378402D01*
X88888825Y-117385515D01*
X88867214Y-117397066D01*
X88848272Y-117412611D01*
X88832727Y-117431553D01*
X88821176Y-117453164D01*
X88814063Y-117476613D01*
X88811661Y-117500999D01*
X88814063Y-117525385D01*
X88821176Y-117548834D01*
X88832727Y-117570445D01*
X88848272Y-117589387D01*
X88857345Y-117597609D01*
X88934264Y-117660736D01*
X89006244Y-117748443D01*
X89040429Y-117812399D01*
X89059728Y-117848505D01*
X89059729Y-117848508D01*
X89092666Y-117957084D01*
X89103787Y-118070000D01*
X89092666Y-118182916D01*
X89059729Y-118291492D01*
X89059728Y-118291495D01*
X89057221Y-118296185D01*
X89006244Y-118391557D01*
X88934264Y-118479264D01*
X88846557Y-118551244D01*
X88765141Y-118594761D01*
X88744766Y-118608375D01*
X88727439Y-118625702D01*
X88713826Y-118646076D01*
X88704448Y-118668715D01*
X88699668Y-118692748D01*
X88699668Y-118717252D01*
X88704448Y-118741285D01*
X88713826Y-118763924D01*
X88727440Y-118784299D01*
X88744767Y-118801626D01*
X88765141Y-118815239D01*
X88846557Y-118858756D01*
X88934264Y-118930736D01*
X89006244Y-119018443D01*
X89040429Y-119082399D01*
X89059728Y-119118505D01*
X89059729Y-119118508D01*
X89092666Y-119227084D01*
X89103787Y-119340000D01*
X89092666Y-119452916D01*
X89059729Y-119561492D01*
X89059728Y-119561495D01*
X89040429Y-119597601D01*
X89006244Y-119661557D01*
X88934264Y-119749264D01*
X88846557Y-119821244D01*
X88782601Y-119855429D01*
X88746495Y-119874728D01*
X88746492Y-119874729D01*
X88637916Y-119907666D01*
X88553298Y-119916000D01*
X88046702Y-119916000D01*
X87962084Y-119907666D01*
X87853508Y-119874729D01*
X87853505Y-119874728D01*
X87817399Y-119855429D01*
X87753443Y-119821244D01*
X87665736Y-119749264D01*
X87593756Y-119661557D01*
X87559571Y-119597601D01*
X87540272Y-119561495D01*
X87540271Y-119561492D01*
X87507334Y-119452916D01*
X87496213Y-119340000D01*
X87507334Y-119227084D01*
X87540271Y-119118508D01*
X87540272Y-119118505D01*
X87559571Y-119082399D01*
X87593756Y-119018443D01*
X87665736Y-118930736D01*
X87753443Y-118858756D01*
X87834859Y-118815239D01*
X87855234Y-118801625D01*
X87872561Y-118784298D01*
X87886174Y-118763924D01*
X87895552Y-118741285D01*
X87900332Y-118717252D01*
X87900332Y-118692748D01*
X87895552Y-118668715D01*
X87886174Y-118646076D01*
X87872560Y-118625701D01*
X87855233Y-118608374D01*
X87834859Y-118594761D01*
X87753443Y-118551244D01*
X87665736Y-118479264D01*
X87593756Y-118391557D01*
X87542779Y-118296185D01*
X87540272Y-118291495D01*
X87540271Y-118291492D01*
X87507334Y-118182916D01*
X87496213Y-118070000D01*
X87507334Y-117957084D01*
X87540271Y-117848508D01*
X87540272Y-117848505D01*
X87559571Y-117812399D01*
X87593756Y-117748443D01*
X87665736Y-117660736D01*
X87742646Y-117597617D01*
X87759965Y-117580298D01*
X87773579Y-117559923D01*
X87782957Y-117537284D01*
X87787737Y-117513251D01*
X87787737Y-117488747D01*
X87782957Y-117464714D01*
X87773579Y-117442075D01*
X87759966Y-117421701D01*
X87742639Y-117404374D01*
X87722264Y-117390760D01*
X87699625Y-117381382D01*
X87675592Y-117376602D01*
X87663340Y-117376000D01*
X87499000Y-117376000D01*
X87499000Y-116224000D01*
X89101000Y-116224000D01*
X89101000Y-117376000D01*
G37*
G36*
X96248228Y-117561703D02*
G01*
X96403100Y-117625853D01*
X96542481Y-117718985D01*
X96661015Y-117837519D01*
X96754147Y-117976900D01*
X96818297Y-118131772D01*
X96851000Y-118296184D01*
X96851000Y-118463816D01*
X96818297Y-118628228D01*
X96754147Y-118783100D01*
X96661015Y-118922481D01*
X96542481Y-119041015D01*
X96403100Y-119134147D01*
X96248228Y-119198297D01*
X96083816Y-119231000D01*
X95916184Y-119231000D01*
X95751772Y-119198297D01*
X95596900Y-119134147D01*
X95457519Y-119041015D01*
X95338985Y-118922481D01*
X95245853Y-118783100D01*
X95181703Y-118628228D01*
X95149000Y-118463816D01*
X95149000Y-118296184D01*
X95181703Y-118131772D01*
X95245853Y-117976900D01*
X95338985Y-117837519D01*
X95457519Y-117718985D01*
X95596900Y-117625853D01*
X95751772Y-117561703D01*
X95916184Y-117529000D01*
X96083816Y-117529000D01*
X96248228Y-117561703D01*
G37*
G36*
X79748228Y-116181703D02*
G01*
X79903100Y-116245853D01*
X80042481Y-116338985D01*
X80161015Y-116457519D01*
X80254147Y-116596900D01*
X80318297Y-116751772D01*
X80351000Y-116916184D01*
X80351000Y-117083816D01*
X80318297Y-117248228D01*
X80254147Y-117403100D01*
X80161015Y-117542481D01*
X80042481Y-117661015D01*
X79903100Y-117754147D01*
X79748228Y-117818297D01*
X79583816Y-117851000D01*
X79416184Y-117851000D01*
X79251772Y-117818297D01*
X79096900Y-117754147D01*
X78957519Y-117661015D01*
X78838985Y-117542481D01*
X78745853Y-117403100D01*
X78681703Y-117248228D01*
X78649000Y-117083816D01*
X78649000Y-116916184D01*
X78681703Y-116751772D01*
X78745853Y-116596900D01*
X78838985Y-116457519D01*
X78957519Y-116338985D01*
X79096900Y-116245853D01*
X79251772Y-116181703D01*
X79416184Y-116149000D01*
X79583816Y-116149000D01*
X79748228Y-116181703D01*
G37*
G36*
X82248228Y-116181703D02*
G01*
X82403100Y-116245853D01*
X82542481Y-116338985D01*
X82661015Y-116457519D01*
X82754147Y-116596900D01*
X82818297Y-116751772D01*
X82851000Y-116916184D01*
X82851000Y-117083816D01*
X82818297Y-117248228D01*
X82754147Y-117403100D01*
X82661015Y-117542481D01*
X82542481Y-117661015D01*
X82403100Y-117754147D01*
X82248228Y-117818297D01*
X82083816Y-117851000D01*
X81916184Y-117851000D01*
X81751772Y-117818297D01*
X81596900Y-117754147D01*
X81457519Y-117661015D01*
X81338985Y-117542481D01*
X81245853Y-117403100D01*
X81181703Y-117248228D01*
X81149000Y-117083816D01*
X81149000Y-116916184D01*
X81181703Y-116751772D01*
X81245853Y-116596900D01*
X81338985Y-116457519D01*
X81457519Y-116338985D01*
X81596900Y-116245853D01*
X81751772Y-116181703D01*
X81916184Y-116149000D01*
X82083816Y-116149000D01*
X82248228Y-116181703D01*
G37*
G36*
X123248228Y-114181703D02*
G01*
X123403100Y-114245853D01*
X123542481Y-114338985D01*
X123661015Y-114457519D01*
X123754147Y-114596900D01*
X123818297Y-114751772D01*
X123851000Y-114916184D01*
X123851000Y-115083816D01*
X123818297Y-115248228D01*
X123754147Y-115403100D01*
X123661015Y-115542481D01*
X123542481Y-115661015D01*
X123403100Y-115754147D01*
X123248228Y-115818297D01*
X123083816Y-115851000D01*
X122916184Y-115851000D01*
X122751772Y-115818297D01*
X122596900Y-115754147D01*
X122457519Y-115661015D01*
X122338985Y-115542481D01*
X122245853Y-115403100D01*
X122181703Y-115248228D01*
X122149000Y-115083816D01*
X122149000Y-114916184D01*
X122181703Y-114751772D01*
X122245853Y-114596900D01*
X122338985Y-114457519D01*
X122457519Y-114338985D01*
X122596900Y-114245853D01*
X122751772Y-114181703D01*
X122916184Y-114149000D01*
X123083816Y-114149000D01*
X123248228Y-114181703D01*
G37*
G36*
X95948228Y-113781703D02*
G01*
X96103100Y-113845853D01*
X96242481Y-113938985D01*
X96361015Y-114057519D01*
X96454147Y-114196900D01*
X96518297Y-114351772D01*
X96551000Y-114516184D01*
X96551000Y-114683816D01*
X96518297Y-114848228D01*
X96454147Y-115003100D01*
X96361015Y-115142481D01*
X96242481Y-115261015D01*
X96103100Y-115354147D01*
X95948228Y-115418297D01*
X95783816Y-115451000D01*
X95616184Y-115451000D01*
X95451772Y-115418297D01*
X95296900Y-115354147D01*
X95157519Y-115261015D01*
X95038985Y-115142481D01*
X94945853Y-115003100D01*
X94881703Y-114848228D01*
X94849000Y-114683816D01*
X94849000Y-114516184D01*
X94881703Y-114351772D01*
X94945853Y-114196900D01*
X95038985Y-114057519D01*
X95157519Y-113938985D01*
X95296900Y-113845853D01*
X95451772Y-113781703D01*
X95616184Y-113749000D01*
X95783816Y-113749000D01*
X95948228Y-113781703D01*
G37*
G36*
X98448228Y-113781703D02*
G01*
X98603100Y-113845853D01*
X98742481Y-113938985D01*
X98861015Y-114057519D01*
X98954147Y-114196900D01*
X99018297Y-114351772D01*
X99051000Y-114516184D01*
X99051000Y-114683816D01*
X99018297Y-114848228D01*
X98954147Y-115003100D01*
X98861015Y-115142481D01*
X98742481Y-115261015D01*
X98603100Y-115354147D01*
X98448228Y-115418297D01*
X98283816Y-115451000D01*
X98116184Y-115451000D01*
X97951772Y-115418297D01*
X97796900Y-115354147D01*
X97657519Y-115261015D01*
X97538985Y-115142481D01*
X97445853Y-115003100D01*
X97381703Y-114848228D01*
X97349000Y-114683816D01*
X97349000Y-114516184D01*
X97381703Y-114351772D01*
X97445853Y-114196900D01*
X97538985Y-114057519D01*
X97657519Y-113938985D01*
X97796900Y-113845853D01*
X97951772Y-113781703D01*
X98116184Y-113749000D01*
X98283816Y-113749000D01*
X98448228Y-113781703D01*
G37*
G36*
X110276626Y-112562037D02*
G01*
X110446465Y-112613557D01*
X110446467Y-112613558D01*
X110602989Y-112697221D01*
X110740186Y-112809814D01*
X110823448Y-112911271D01*
X110852778Y-112947009D01*
X110936443Y-113103534D01*
X110987963Y-113273373D01*
X110987963Y-113273375D01*
X111000740Y-113403097D01*
X111001000Y-113405742D01*
X111001000Y-113794257D01*
X110987963Y-113926626D01*
X110936443Y-114096466D01*
X110852778Y-114252991D01*
X110823448Y-114288729D01*
X110740186Y-114390186D01*
X110658139Y-114457519D01*
X110602991Y-114502778D01*
X110446466Y-114586443D01*
X110276627Y-114637963D01*
X110100000Y-114655359D01*
X109923374Y-114637963D01*
X109753535Y-114586443D01*
X109597010Y-114502778D01*
X109459815Y-114390185D01*
X109347222Y-114252991D01*
X109263557Y-114096466D01*
X109212037Y-113926627D01*
X109204898Y-113854147D01*
X109199000Y-113794260D01*
X109199000Y-113405741D01*
X109212037Y-113273376D01*
X109212037Y-113273374D01*
X109263557Y-113103535D01*
X109347222Y-112947010D01*
X109372520Y-112916184D01*
X109459814Y-112809814D01*
X109561271Y-112726552D01*
X109597009Y-112697222D01*
X109753534Y-112613557D01*
X109923373Y-112562037D01*
X110100000Y-112544641D01*
X110276626Y-112562037D01*
G37*
G36*
X108358600Y-112552989D02*
G01*
X108391652Y-112563015D01*
X108422103Y-112579292D01*
X108448799Y-112601201D01*
X108470708Y-112627897D01*
X108486985Y-112658348D01*
X108497011Y-112691400D01*
X108501000Y-112731903D01*
X108501000Y-114468097D01*
X108497011Y-114508600D01*
X108486985Y-114541652D01*
X108470708Y-114572103D01*
X108448799Y-114598799D01*
X108422103Y-114620708D01*
X108391652Y-114636985D01*
X108358600Y-114647011D01*
X108318097Y-114651000D01*
X106881903Y-114651000D01*
X106841400Y-114647011D01*
X106808348Y-114636985D01*
X106777897Y-114620708D01*
X106751201Y-114598799D01*
X106729292Y-114572103D01*
X106713015Y-114541652D01*
X106702989Y-114508600D01*
X106699000Y-114468097D01*
X106699000Y-112731903D01*
X106702989Y-112691400D01*
X106713015Y-112658348D01*
X106729292Y-112627897D01*
X106751201Y-112601201D01*
X106777897Y-112579292D01*
X106808348Y-112563015D01*
X106841400Y-112552989D01*
X106881903Y-112549000D01*
X108318097Y-112549000D01*
X108358600Y-112552989D01*
G37*
G36*
X85048228Y-112281703D02*
G01*
X85203100Y-112345853D01*
X85342481Y-112438985D01*
X85461015Y-112557519D01*
X85554147Y-112696900D01*
X85618297Y-112851772D01*
X85651000Y-113016184D01*
X85651000Y-113183816D01*
X85618297Y-113348228D01*
X85554147Y-113503100D01*
X85461015Y-113642481D01*
X85342481Y-113761015D01*
X85203100Y-113854147D01*
X85048228Y-113918297D01*
X84883816Y-113951000D01*
X84716184Y-113951000D01*
X84551772Y-113918297D01*
X84396900Y-113854147D01*
X84257519Y-113761015D01*
X84138985Y-113642481D01*
X84045853Y-113503100D01*
X83981703Y-113348228D01*
X83949000Y-113183816D01*
X83949000Y-113016184D01*
X83981703Y-112851772D01*
X84045853Y-112696900D01*
X84138985Y-112557519D01*
X84257519Y-112438985D01*
X84396900Y-112345853D01*
X84551772Y-112281703D01*
X84716184Y-112249000D01*
X84883816Y-112249000D01*
X85048228Y-112281703D01*
G37*
G36*
X92668228Y-112281703D02*
G01*
X92823100Y-112345853D01*
X92962481Y-112438985D01*
X93081015Y-112557519D01*
X93174147Y-112696900D01*
X93238297Y-112851772D01*
X93271000Y-113016184D01*
X93271000Y-113183816D01*
X93238297Y-113348228D01*
X93174147Y-113503100D01*
X93081015Y-113642481D01*
X92962481Y-113761015D01*
X92823100Y-113854147D01*
X92668228Y-113918297D01*
X92503816Y-113951000D01*
X92336184Y-113951000D01*
X92171772Y-113918297D01*
X92016900Y-113854147D01*
X91877519Y-113761015D01*
X91758985Y-113642481D01*
X91665853Y-113503100D01*
X91601703Y-113348228D01*
X91569000Y-113183816D01*
X91569000Y-113016184D01*
X91601703Y-112851772D01*
X91665853Y-112696900D01*
X91758985Y-112557519D01*
X91877519Y-112438985D01*
X92016900Y-112345853D01*
X92171772Y-112281703D01*
X92336184Y-112249000D01*
X92503816Y-112249000D01*
X92668228Y-112281703D01*
G37*
G36*
X123248228Y-112181703D02*
G01*
X123403100Y-112245853D01*
X123542481Y-112338985D01*
X123661015Y-112457519D01*
X123754147Y-112596900D01*
X123818297Y-112751772D01*
X123851000Y-112916184D01*
X123851000Y-113083816D01*
X123818297Y-113248228D01*
X123754147Y-113403100D01*
X123661015Y-113542481D01*
X123542481Y-113661015D01*
X123403100Y-113754147D01*
X123248228Y-113818297D01*
X123083816Y-113851000D01*
X122916184Y-113851000D01*
X122751772Y-113818297D01*
X122596900Y-113754147D01*
X122457519Y-113661015D01*
X122338985Y-113542481D01*
X122245853Y-113403100D01*
X122181703Y-113248228D01*
X122149000Y-113083816D01*
X122149000Y-112916184D01*
X122181703Y-112751772D01*
X122245853Y-112596900D01*
X122338985Y-112457519D01*
X122457519Y-112338985D01*
X122596900Y-112245853D01*
X122751772Y-112181703D01*
X122916184Y-112149000D01*
X123083816Y-112149000D01*
X123248228Y-112181703D01*
G37*
G36*
X79748228Y-112181703D02*
G01*
X79903100Y-112245853D01*
X80042481Y-112338985D01*
X80161015Y-112457519D01*
X80254147Y-112596900D01*
X80318297Y-112751772D01*
X80351000Y-112916184D01*
X80351000Y-113083816D01*
X80318297Y-113248228D01*
X80254147Y-113403100D01*
X80161015Y-113542481D01*
X80042481Y-113661015D01*
X79903100Y-113754147D01*
X79748228Y-113818297D01*
X79583816Y-113851000D01*
X79416184Y-113851000D01*
X79251772Y-113818297D01*
X79096900Y-113754147D01*
X78957519Y-113661015D01*
X78838985Y-113542481D01*
X78745853Y-113403100D01*
X78681703Y-113248228D01*
X78649000Y-113083816D01*
X78649000Y-112916184D01*
X78681703Y-112751772D01*
X78745853Y-112596900D01*
X78838985Y-112457519D01*
X78957519Y-112338985D01*
X79096900Y-112245853D01*
X79251772Y-112181703D01*
X79416184Y-112149000D01*
X79583816Y-112149000D01*
X79748228Y-112181703D01*
G37*
G36*
X82248228Y-112181703D02*
G01*
X82403100Y-112245853D01*
X82542481Y-112338985D01*
X82661015Y-112457519D01*
X82754147Y-112596900D01*
X82818297Y-112751772D01*
X82851000Y-112916184D01*
X82851000Y-113083816D01*
X82818297Y-113248228D01*
X82754147Y-113403100D01*
X82661015Y-113542481D01*
X82542481Y-113661015D01*
X82403100Y-113754147D01*
X82248228Y-113818297D01*
X82083816Y-113851000D01*
X81916184Y-113851000D01*
X81751772Y-113818297D01*
X81596900Y-113754147D01*
X81457519Y-113661015D01*
X81338985Y-113542481D01*
X81245853Y-113403100D01*
X81181703Y-113248228D01*
X81149000Y-113083816D01*
X81149000Y-112916184D01*
X81181703Y-112751772D01*
X81245853Y-112596900D01*
X81338985Y-112457519D01*
X81457519Y-112338985D01*
X81596900Y-112245853D01*
X81751772Y-112181703D01*
X81916184Y-112149000D01*
X82083816Y-112149000D01*
X82248228Y-112181703D01*
G37*
G36*
X118748228Y-109181703D02*
G01*
X118903100Y-109245853D01*
X119042481Y-109338985D01*
X119161015Y-109457519D01*
X119254147Y-109596900D01*
X119318297Y-109751772D01*
X119351000Y-109916184D01*
X119351000Y-110083816D01*
X119318297Y-110248228D01*
X119254147Y-110403100D01*
X119161015Y-110542481D01*
X119042481Y-110661015D01*
X118903100Y-110754147D01*
X118748228Y-110818297D01*
X118583816Y-110851000D01*
X118416184Y-110851000D01*
X118251772Y-110818297D01*
X118096900Y-110754147D01*
X117957519Y-110661015D01*
X117838985Y-110542481D01*
X117745853Y-110403100D01*
X117681703Y-110248228D01*
X117649000Y-110083816D01*
X117649000Y-109916184D01*
X117681703Y-109751772D01*
X117745853Y-109596900D01*
X117838985Y-109457519D01*
X117957519Y-109338985D01*
X118096900Y-109245853D01*
X118251772Y-109181703D01*
X118416184Y-109149000D01*
X118583816Y-109149000D01*
X118748228Y-109181703D01*
G37*
G36*
X116248228Y-109181703D02*
G01*
X116403100Y-109245853D01*
X116542481Y-109338985D01*
X116661015Y-109457519D01*
X116754147Y-109596900D01*
X116818297Y-109751772D01*
X116851000Y-109916184D01*
X116851000Y-110083816D01*
X116818297Y-110248228D01*
X116754147Y-110403100D01*
X116661015Y-110542481D01*
X116542481Y-110661015D01*
X116403100Y-110754147D01*
X116248228Y-110818297D01*
X116083816Y-110851000D01*
X115916184Y-110851000D01*
X115751772Y-110818297D01*
X115596900Y-110754147D01*
X115457519Y-110661015D01*
X115338985Y-110542481D01*
X115245853Y-110403100D01*
X115181703Y-110248228D01*
X115149000Y-110083816D01*
X115149000Y-109916184D01*
X115181703Y-109751772D01*
X115245853Y-109596900D01*
X115338985Y-109457519D01*
X115457519Y-109338985D01*
X115596900Y-109245853D01*
X115751772Y-109181703D01*
X115916184Y-109149000D01*
X116083816Y-109149000D01*
X116248228Y-109181703D01*
G37*
G36*
X124889943Y-103066248D02*
G01*
X125445189Y-103296238D01*
X125693347Y-103462052D01*
X125944899Y-103630134D01*
X126369866Y-104055101D01*
X126518440Y-104277458D01*
X126703762Y-104554811D01*
X126933752Y-105110057D01*
X127051000Y-105699501D01*
X127051000Y-106300499D01*
X126933752Y-106889943D01*
X126703762Y-107445189D01*
X126686203Y-107471468D01*
X126369866Y-107944899D01*
X125944899Y-108369866D01*
X125804573Y-108463629D01*
X125445189Y-108703762D01*
X124889943Y-108933752D01*
X124300499Y-109051000D01*
X123699501Y-109051000D01*
X123110057Y-108933752D01*
X122554811Y-108703762D01*
X122195427Y-108463629D01*
X122055101Y-108369866D01*
X121630134Y-107944899D01*
X121313797Y-107471468D01*
X121296238Y-107445189D01*
X121066248Y-106889943D01*
X120949000Y-106300499D01*
X120949000Y-105699501D01*
X121066248Y-105110057D01*
X121296238Y-104554811D01*
X121481560Y-104277458D01*
X121630134Y-104055101D01*
X122055101Y-103630134D01*
X122306653Y-103462052D01*
X122554811Y-103296238D01*
X123110057Y-103066248D01*
X123699501Y-102949000D01*
X124300499Y-102949000D01*
X124889943Y-103066248D01*
G37*
G36*
X81889943Y-103066248D02*
G01*
X82445189Y-103296238D01*
X82693347Y-103462052D01*
X82944899Y-103630134D01*
X83369866Y-104055101D01*
X83518440Y-104277458D01*
X83703762Y-104554811D01*
X83933752Y-105110057D01*
X84051000Y-105699501D01*
X84051000Y-106300499D01*
X83933752Y-106889943D01*
X83703762Y-107445189D01*
X83686203Y-107471468D01*
X83369866Y-107944899D01*
X82944899Y-108369866D01*
X82804573Y-108463629D01*
X82445189Y-108703762D01*
X81889943Y-108933752D01*
X81300499Y-109051000D01*
X80699501Y-109051000D01*
X80110057Y-108933752D01*
X79554811Y-108703762D01*
X79195427Y-108463629D01*
X79055101Y-108369866D01*
X78630134Y-107944899D01*
X78313797Y-107471468D01*
X78296238Y-107445189D01*
X78066248Y-106889943D01*
X77949000Y-106300499D01*
X77949000Y-105699501D01*
X78066248Y-105110057D01*
X78296238Y-104554811D01*
X78481560Y-104277458D01*
X78630134Y-104055101D01*
X79055101Y-103630134D01*
X79306653Y-103462052D01*
X79554811Y-103296238D01*
X80110057Y-103066248D01*
X80699501Y-102949000D01*
X81300499Y-102949000D01*
X81889943Y-103066248D01*
G37*
G36*
X91076626Y-105987037D02*
G01*
X91246465Y-106038557D01*
X91246467Y-106038558D01*
X91402989Y-106122221D01*
X91540186Y-106234814D01*
X91594091Y-106300499D01*
X91652778Y-106372009D01*
X91736443Y-106528534D01*
X91787963Y-106698373D01*
X91801000Y-106830742D01*
X91801000Y-107169257D01*
X91787963Y-107301626D01*
X91736443Y-107471466D01*
X91652778Y-107627991D01*
X91646689Y-107635410D01*
X91540186Y-107765186D01*
X91477863Y-107816332D01*
X91402991Y-107877778D01*
X91246466Y-107961443D01*
X91076627Y-108012963D01*
X90900000Y-108030359D01*
X90723374Y-108012963D01*
X90553535Y-107961443D01*
X90397010Y-107877778D01*
X90259815Y-107765185D01*
X90147222Y-107627991D01*
X90103701Y-107546570D01*
X90063558Y-107471468D01*
X90063557Y-107471466D01*
X90012037Y-107301627D01*
X89999000Y-107169258D01*
X89999000Y-106830743D01*
X90012037Y-106698374D01*
X90063557Y-106528535D01*
X90063559Y-106528532D01*
X90147221Y-106372011D01*
X90259814Y-106234814D01*
X90361271Y-106151552D01*
X90397009Y-106122222D01*
X90553534Y-106038557D01*
X90723373Y-105987037D01*
X90900000Y-105969641D01*
X91076626Y-105987037D01*
G37*
G36*
X93576626Y-105987037D02*
G01*
X93746465Y-106038557D01*
X93746467Y-106038558D01*
X93902989Y-106122221D01*
X94040186Y-106234814D01*
X94094091Y-106300499D01*
X94152778Y-106372009D01*
X94236443Y-106528534D01*
X94287963Y-106698373D01*
X94301000Y-106830742D01*
X94301000Y-107169257D01*
X94287963Y-107301626D01*
X94236443Y-107471466D01*
X94152778Y-107627991D01*
X94146689Y-107635410D01*
X94040186Y-107765186D01*
X93977863Y-107816332D01*
X93902991Y-107877778D01*
X93746466Y-107961443D01*
X93576627Y-108012963D01*
X93400000Y-108030359D01*
X93223374Y-108012963D01*
X93053535Y-107961443D01*
X92897010Y-107877778D01*
X92759815Y-107765185D01*
X92647222Y-107627991D01*
X92603701Y-107546570D01*
X92563558Y-107471468D01*
X92563557Y-107471466D01*
X92512037Y-107301627D01*
X92499000Y-107169258D01*
X92499000Y-106830743D01*
X92512037Y-106698374D01*
X92563557Y-106528535D01*
X92563559Y-106528532D01*
X92647221Y-106372011D01*
X92759814Y-106234814D01*
X92861271Y-106151552D01*
X92897009Y-106122222D01*
X93053534Y-106038557D01*
X93223373Y-105987037D01*
X93400000Y-105969641D01*
X93576626Y-105987037D01*
G37*
G36*
X96076626Y-105987037D02*
G01*
X96246465Y-106038557D01*
X96246467Y-106038558D01*
X96402989Y-106122221D01*
X96540186Y-106234814D01*
X96594091Y-106300499D01*
X96652778Y-106372009D01*
X96736443Y-106528534D01*
X96787963Y-106698373D01*
X96801000Y-106830742D01*
X96801000Y-107169257D01*
X96787963Y-107301626D01*
X96736443Y-107471466D01*
X96652778Y-107627991D01*
X96646689Y-107635410D01*
X96540186Y-107765186D01*
X96477863Y-107816332D01*
X96402991Y-107877778D01*
X96246466Y-107961443D01*
X96076627Y-108012963D01*
X95900000Y-108030359D01*
X95723374Y-108012963D01*
X95553535Y-107961443D01*
X95397010Y-107877778D01*
X95259815Y-107765185D01*
X95147222Y-107627991D01*
X95103701Y-107546570D01*
X95063558Y-107471468D01*
X95063557Y-107471466D01*
X95012037Y-107301627D01*
X94999000Y-107169258D01*
X94999000Y-106830743D01*
X95012037Y-106698374D01*
X95063557Y-106528535D01*
X95063559Y-106528532D01*
X95147221Y-106372011D01*
X95259814Y-106234814D01*
X95361271Y-106151552D01*
X95397009Y-106122222D01*
X95553534Y-106038557D01*
X95723373Y-105987037D01*
X95900000Y-105969641D01*
X96076626Y-105987037D01*
G37*
G36*
X89158600Y-105977989D02*
G01*
X89191652Y-105988015D01*
X89222103Y-106004292D01*
X89248799Y-106026201D01*
X89270708Y-106052897D01*
X89286985Y-106083348D01*
X89297011Y-106116400D01*
X89301000Y-106156903D01*
X89301000Y-107843097D01*
X89297011Y-107883600D01*
X89286985Y-107916652D01*
X89270708Y-107947103D01*
X89248799Y-107973799D01*
X89222103Y-107995708D01*
X89191652Y-108011985D01*
X89158600Y-108022011D01*
X89118097Y-108026000D01*
X87681903Y-108026000D01*
X87641400Y-108022011D01*
X87608348Y-108011985D01*
X87577897Y-107995708D01*
X87551201Y-107973799D01*
X87529292Y-107947103D01*
X87513015Y-107916652D01*
X87502989Y-107883600D01*
X87499000Y-107843097D01*
X87499000Y-106156903D01*
X87502989Y-106116400D01*
X87513015Y-106083348D01*
X87529292Y-106052897D01*
X87551201Y-106026201D01*
X87577897Y-106004292D01*
X87608348Y-105988015D01*
X87641400Y-105977989D01*
X87681903Y-105974000D01*
X89118097Y-105974000D01*
X89158600Y-105977989D01*
G37*
G36*
X108199117Y-106137589D02*
G01*
X108304893Y-106158629D01*
X108445206Y-106216748D01*
X108571484Y-106301125D01*
X108678875Y-106408516D01*
X108763252Y-106534794D01*
X108821371Y-106675107D01*
X108851000Y-106824063D01*
X108851000Y-106975937D01*
X108821371Y-107124893D01*
X108763252Y-107265206D01*
X108678875Y-107391484D01*
X108571484Y-107498875D01*
X108445206Y-107583252D01*
X108304893Y-107641371D01*
X108205589Y-107661124D01*
X108155938Y-107671000D01*
X108004062Y-107671000D01*
X107954411Y-107661124D01*
X107855107Y-107641371D01*
X107714794Y-107583252D01*
X107588516Y-107498875D01*
X107481125Y-107391484D01*
X107396748Y-107265206D01*
X107338629Y-107124893D01*
X107309000Y-106975937D01*
X107309000Y-106824063D01*
X107338629Y-106675107D01*
X107396748Y-106534794D01*
X107481125Y-106408516D01*
X107588516Y-106301125D01*
X107714794Y-106216748D01*
X107855107Y-106158629D01*
X107960883Y-106137589D01*
X108004062Y-106129000D01*
X108155938Y-106129000D01*
X108199117Y-106137589D01*
G37*
G36*
X105659117Y-106137589D02*
G01*
X105764893Y-106158629D01*
X105905206Y-106216748D01*
X106031484Y-106301125D01*
X106138875Y-106408516D01*
X106223252Y-106534794D01*
X106281371Y-106675107D01*
X106311000Y-106824063D01*
X106311000Y-106975937D01*
X106281371Y-107124893D01*
X106223252Y-107265206D01*
X106138875Y-107391484D01*
X106031484Y-107498875D01*
X105905206Y-107583252D01*
X105764893Y-107641371D01*
X105665589Y-107661124D01*
X105615938Y-107671000D01*
X105464062Y-107671000D01*
X105414411Y-107661124D01*
X105315107Y-107641371D01*
X105174794Y-107583252D01*
X105048516Y-107498875D01*
X104941125Y-107391484D01*
X104856748Y-107265206D01*
X104798629Y-107124893D01*
X104769000Y-106975937D01*
X104769000Y-106824063D01*
X104798629Y-106675107D01*
X104856748Y-106534794D01*
X104941125Y-106408516D01*
X105048516Y-106301125D01*
X105174794Y-106216748D01*
X105315107Y-106158629D01*
X105420883Y-106137589D01*
X105464062Y-106129000D01*
X105615938Y-106129000D01*
X105659117Y-106137589D01*
G37*
G36*
X103119117Y-106137589D02*
G01*
X103224893Y-106158629D01*
X103365206Y-106216748D01*
X103491484Y-106301125D01*
X103598875Y-106408516D01*
X103683252Y-106534794D01*
X103741371Y-106675107D01*
X103771000Y-106824063D01*
X103771000Y-106975937D01*
X103741371Y-107124893D01*
X103683252Y-107265206D01*
X103598875Y-107391484D01*
X103491484Y-107498875D01*
X103365206Y-107583252D01*
X103224893Y-107641371D01*
X103125589Y-107661124D01*
X103075938Y-107671000D01*
X102924062Y-107671000D01*
X102874411Y-107661124D01*
X102775107Y-107641371D01*
X102634794Y-107583252D01*
X102508516Y-107498875D01*
X102401125Y-107391484D01*
X102316748Y-107265206D01*
X102258629Y-107124893D01*
X102229000Y-106975937D01*
X102229000Y-106824063D01*
X102258629Y-106675107D01*
X102316748Y-106534794D01*
X102401125Y-106408516D01*
X102508516Y-106301125D01*
X102634794Y-106216748D01*
X102775107Y-106158629D01*
X102880883Y-106137589D01*
X102924062Y-106129000D01*
X103075938Y-106129000D01*
X103119117Y-106137589D01*
G37*
G36*
X118868228Y-105181703D02*
G01*
X119023100Y-105245853D01*
X119162481Y-105338985D01*
X119281015Y-105457519D01*
X119374147Y-105596900D01*
X119438297Y-105751772D01*
X119471000Y-105916184D01*
X119471000Y-106083816D01*
X119438297Y-106248228D01*
X119374147Y-106403100D01*
X119281015Y-106542481D01*
X119162481Y-106661015D01*
X119023100Y-106754147D01*
X118868228Y-106818297D01*
X118703816Y-106851000D01*
X118536184Y-106851000D01*
X118371772Y-106818297D01*
X118216900Y-106754147D01*
X118077519Y-106661015D01*
X117958985Y-106542481D01*
X117865853Y-106403100D01*
X117801703Y-106248228D01*
X117769000Y-106083816D01*
X117769000Y-105916184D01*
X117801703Y-105751772D01*
X117865853Y-105596900D01*
X117958985Y-105457519D01*
X118077519Y-105338985D01*
X118216900Y-105245853D01*
X118371772Y-105181703D01*
X118536184Y-105149000D01*
X118703816Y-105149000D01*
X118868228Y-105181703D01*
G37*
G36*
X111248228Y-105181703D02*
G01*
X111403100Y-105245853D01*
X111542481Y-105338985D01*
X111661015Y-105457519D01*
X111754147Y-105596900D01*
X111818297Y-105751772D01*
X111851000Y-105916184D01*
X111851000Y-106083816D01*
X111818297Y-106248228D01*
X111754147Y-106403100D01*
X111661015Y-106542481D01*
X111542481Y-106661015D01*
X111403100Y-106754147D01*
X111248228Y-106818297D01*
X111083816Y-106851000D01*
X110916184Y-106851000D01*
X110751772Y-106818297D01*
X110596900Y-106754147D01*
X110457519Y-106661015D01*
X110338985Y-106542481D01*
X110245853Y-106403100D01*
X110181703Y-106248228D01*
X110149000Y-106083816D01*
X110149000Y-105916184D01*
X110181703Y-105751772D01*
X110245853Y-105596900D01*
X110338985Y-105457519D01*
X110457519Y-105338985D01*
X110596900Y-105245853D01*
X110751772Y-105181703D01*
X110916184Y-105149000D01*
X111083816Y-105149000D01*
X111248228Y-105181703D01*
G37*
M02*
