G04 #@! TF.GenerationSoftware,KiCad,Pcbnew,(5.1.5)-3*
G04 #@! TF.CreationDate,2020-07-01T02:10:36+02:00*
G04 #@! TF.ProjectId,GermaniumFuzz,4765726d-616e-4697-956d-46757a7a2e6b,rev?*
G04 #@! TF.SameCoordinates,Original*
G04 #@! TF.FileFunction,Copper,L2,Bot*
G04 #@! TF.FilePolarity,Positive*
%FSLAX46Y46*%
G04 Gerber Fmt 4.6, Leading zero omitted, Abs format (unit mm)*
G04 Created by KiCad (PCBNEW (5.1.5)-3) date 2020-07-01 02:10:36*
%MOMM*%
%LPD*%
G04 APERTURE LIST*
%ADD10O,1.600000X1.600000*%
%ADD11C,1.600000*%
%ADD12O,1.700000X2.000000*%
%ADD13C,0.100000*%
%ADD14O,1.700000X1.950000*%
%ADD15C,0.800000*%
%ADD16C,6.000000*%
%ADD17C,1.440000*%
%ADD18R,1.500000X1.050000*%
%ADD19O,1.500000X1.050000*%
%ADD20C,0.381000*%
%ADD21C,0.254000*%
G04 APERTURE END LIST*
D10*
X92420000Y-113100000D03*
D11*
X84800000Y-113100000D03*
D12*
X110100000Y-113600000D03*
G04 #@! TA.AperFunction,ComponentPad*
D13*
G36*
X108224504Y-112601204D02*
G01*
X108248773Y-112604804D01*
X108272571Y-112610765D01*
X108295671Y-112619030D01*
X108317849Y-112629520D01*
X108338893Y-112642133D01*
X108358598Y-112656747D01*
X108376777Y-112673223D01*
X108393253Y-112691402D01*
X108407867Y-112711107D01*
X108420480Y-112732151D01*
X108430970Y-112754329D01*
X108439235Y-112777429D01*
X108445196Y-112801227D01*
X108448796Y-112825496D01*
X108450000Y-112850000D01*
X108450000Y-114350000D01*
X108448796Y-114374504D01*
X108445196Y-114398773D01*
X108439235Y-114422571D01*
X108430970Y-114445671D01*
X108420480Y-114467849D01*
X108407867Y-114488893D01*
X108393253Y-114508598D01*
X108376777Y-114526777D01*
X108358598Y-114543253D01*
X108338893Y-114557867D01*
X108317849Y-114570480D01*
X108295671Y-114580970D01*
X108272571Y-114589235D01*
X108248773Y-114595196D01*
X108224504Y-114598796D01*
X108200000Y-114600000D01*
X107000000Y-114600000D01*
X106975496Y-114598796D01*
X106951227Y-114595196D01*
X106927429Y-114589235D01*
X106904329Y-114580970D01*
X106882151Y-114570480D01*
X106861107Y-114557867D01*
X106841402Y-114543253D01*
X106823223Y-114526777D01*
X106806747Y-114508598D01*
X106792133Y-114488893D01*
X106779520Y-114467849D01*
X106769030Y-114445671D01*
X106760765Y-114422571D01*
X106754804Y-114398773D01*
X106751204Y-114374504D01*
X106750000Y-114350000D01*
X106750000Y-112850000D01*
X106751204Y-112825496D01*
X106754804Y-112801227D01*
X106760765Y-112777429D01*
X106769030Y-112754329D01*
X106779520Y-112732151D01*
X106792133Y-112711107D01*
X106806747Y-112691402D01*
X106823223Y-112673223D01*
X106841402Y-112656747D01*
X106861107Y-112642133D01*
X106882151Y-112629520D01*
X106904329Y-112619030D01*
X106927429Y-112610765D01*
X106951227Y-112604804D01*
X106975496Y-112601204D01*
X107000000Y-112600000D01*
X108200000Y-112600000D01*
X108224504Y-112601204D01*
G37*
G04 #@! TD.AperFunction*
D14*
X95900000Y-107000000D03*
X93400000Y-107000000D03*
X90900000Y-107000000D03*
G04 #@! TA.AperFunction,ComponentPad*
D13*
G36*
X89024504Y-106026204D02*
G01*
X89048773Y-106029804D01*
X89072571Y-106035765D01*
X89095671Y-106044030D01*
X89117849Y-106054520D01*
X89138893Y-106067133D01*
X89158598Y-106081747D01*
X89176777Y-106098223D01*
X89193253Y-106116402D01*
X89207867Y-106136107D01*
X89220480Y-106157151D01*
X89230970Y-106179329D01*
X89239235Y-106202429D01*
X89245196Y-106226227D01*
X89248796Y-106250496D01*
X89250000Y-106275000D01*
X89250000Y-107725000D01*
X89248796Y-107749504D01*
X89245196Y-107773773D01*
X89239235Y-107797571D01*
X89230970Y-107820671D01*
X89220480Y-107842849D01*
X89207867Y-107863893D01*
X89193253Y-107883598D01*
X89176777Y-107901777D01*
X89158598Y-107918253D01*
X89138893Y-107932867D01*
X89117849Y-107945480D01*
X89095671Y-107955970D01*
X89072571Y-107964235D01*
X89048773Y-107970196D01*
X89024504Y-107973796D01*
X89000000Y-107975000D01*
X87800000Y-107975000D01*
X87775496Y-107973796D01*
X87751227Y-107970196D01*
X87727429Y-107964235D01*
X87704329Y-107955970D01*
X87682151Y-107945480D01*
X87661107Y-107932867D01*
X87641402Y-107918253D01*
X87623223Y-107901777D01*
X87606747Y-107883598D01*
X87592133Y-107863893D01*
X87579520Y-107842849D01*
X87569030Y-107820671D01*
X87560765Y-107797571D01*
X87554804Y-107773773D01*
X87551204Y-107749504D01*
X87550000Y-107725000D01*
X87550000Y-106275000D01*
X87551204Y-106250496D01*
X87554804Y-106226227D01*
X87560765Y-106202429D01*
X87569030Y-106179329D01*
X87579520Y-106157151D01*
X87592133Y-106136107D01*
X87606747Y-106116402D01*
X87623223Y-106098223D01*
X87641402Y-106081747D01*
X87661107Y-106067133D01*
X87682151Y-106054520D01*
X87704329Y-106044030D01*
X87727429Y-106035765D01*
X87751227Y-106029804D01*
X87775496Y-106026204D01*
X87800000Y-106025000D01*
X89000000Y-106025000D01*
X89024504Y-106026204D01*
G37*
G04 #@! TD.AperFunction*
D15*
X125590990Y-122409010D03*
X124000000Y-121750000D03*
X122409010Y-122409010D03*
X121750000Y-124000000D03*
X122409010Y-125590990D03*
X124000000Y-126250000D03*
X125590990Y-125590990D03*
X126250000Y-124000000D03*
D16*
X124000000Y-124000000D03*
D15*
X125590990Y-104409010D03*
X124000000Y-103750000D03*
X122409010Y-104409010D03*
X121750000Y-106000000D03*
X122409010Y-107590990D03*
X124000000Y-108250000D03*
X125590990Y-107590990D03*
X126250000Y-106000000D03*
D16*
X124000000Y-106000000D03*
D15*
X82590990Y-104409010D03*
X81000000Y-103750000D03*
X79409010Y-104409010D03*
X78750000Y-106000000D03*
X79409010Y-107590990D03*
X81000000Y-108250000D03*
X82590990Y-107590990D03*
X83250000Y-106000000D03*
D16*
X81000000Y-106000000D03*
D15*
X82590990Y-122409010D03*
X81000000Y-121750000D03*
X79409010Y-122409010D03*
X78750000Y-124000000D03*
X79409010Y-125590990D03*
X81000000Y-126250000D03*
X82590990Y-125590990D03*
X83250000Y-124000000D03*
D16*
X81000000Y-124000000D03*
D11*
X123000000Y-113000000D03*
X123000000Y-115000000D03*
D10*
X118620000Y-106000000D03*
D11*
X111000000Y-106000000D03*
D17*
X103000000Y-106900000D03*
X105540000Y-106900000D03*
X108080000Y-106900000D03*
X106000000Y-123000000D03*
X103460000Y-123000000D03*
X100920000Y-123000000D03*
D11*
X95700000Y-114600000D03*
X98200000Y-114600000D03*
X82000000Y-117000000D03*
X79500000Y-117000000D03*
D10*
X96000000Y-118380000D03*
D11*
X96000000Y-126000000D03*
D18*
X89000000Y-125400000D03*
D19*
X89000000Y-122860000D03*
X89000000Y-124130000D03*
D18*
X88300000Y-116800000D03*
D19*
X88300000Y-119340000D03*
X88300000Y-118070000D03*
D14*
X117000000Y-121800000D03*
X114500000Y-121800000D03*
G04 #@! TA.AperFunction,ComponentPad*
D13*
G36*
X112624504Y-120826204D02*
G01*
X112648773Y-120829804D01*
X112672571Y-120835765D01*
X112695671Y-120844030D01*
X112717849Y-120854520D01*
X112738893Y-120867133D01*
X112758598Y-120881747D01*
X112776777Y-120898223D01*
X112793253Y-120916402D01*
X112807867Y-120936107D01*
X112820480Y-120957151D01*
X112830970Y-120979329D01*
X112839235Y-121002429D01*
X112845196Y-121026227D01*
X112848796Y-121050496D01*
X112850000Y-121075000D01*
X112850000Y-122525000D01*
X112848796Y-122549504D01*
X112845196Y-122573773D01*
X112839235Y-122597571D01*
X112830970Y-122620671D01*
X112820480Y-122642849D01*
X112807867Y-122663893D01*
X112793253Y-122683598D01*
X112776777Y-122701777D01*
X112758598Y-122718253D01*
X112738893Y-122732867D01*
X112717849Y-122745480D01*
X112695671Y-122755970D01*
X112672571Y-122764235D01*
X112648773Y-122770196D01*
X112624504Y-122773796D01*
X112600000Y-122775000D01*
X111400000Y-122775000D01*
X111375496Y-122773796D01*
X111351227Y-122770196D01*
X111327429Y-122764235D01*
X111304329Y-122755970D01*
X111282151Y-122745480D01*
X111261107Y-122732867D01*
X111241402Y-122718253D01*
X111223223Y-122701777D01*
X111206747Y-122683598D01*
X111192133Y-122663893D01*
X111179520Y-122642849D01*
X111169030Y-122620671D01*
X111160765Y-122597571D01*
X111154804Y-122573773D01*
X111151204Y-122549504D01*
X111150000Y-122525000D01*
X111150000Y-121075000D01*
X111151204Y-121050496D01*
X111154804Y-121026227D01*
X111160765Y-121002429D01*
X111169030Y-120979329D01*
X111179520Y-120957151D01*
X111192133Y-120936107D01*
X111206747Y-120916402D01*
X111223223Y-120898223D01*
X111241402Y-120881747D01*
X111261107Y-120867133D01*
X111282151Y-120854520D01*
X111304329Y-120844030D01*
X111327429Y-120835765D01*
X111351227Y-120829804D01*
X111375496Y-120826204D01*
X111400000Y-120825000D01*
X112600000Y-120825000D01*
X112624504Y-120826204D01*
G37*
G04 #@! TD.AperFunction*
D11*
X116000000Y-110000000D03*
X118500000Y-110000000D03*
X79500000Y-113000000D03*
X82000000Y-113000000D03*
D15*
X91500000Y-119200000D03*
X100900000Y-117000000D03*
X121500000Y-118500000D03*
X126400000Y-118400000D03*
X126400000Y-111500000D03*
X119300000Y-103500000D03*
X112200000Y-103400000D03*
X105700000Y-103500000D03*
X100400000Y-103400000D03*
X84700000Y-103600000D03*
X78300000Y-115100000D03*
X84500000Y-126700000D03*
X92700000Y-126600000D03*
X100000000Y-126800000D03*
X107000000Y-126800000D03*
X120500000Y-126400000D03*
X115000000Y-118000000D03*
X114200000Y-111600000D03*
X112400000Y-109300000D03*
X105900000Y-119400000D03*
X101200000Y-119500000D03*
X84600000Y-119600000D03*
X84300000Y-111500000D03*
X120500000Y-111400000D03*
X100300000Y-109200000D03*
X106900000Y-105700000D03*
X102500000Y-114500000D03*
X93300000Y-115900000D03*
X98800000Y-119800000D03*
X101300000Y-111100000D03*
X102451006Y-109963112D03*
D20*
X102436888Y-109963112D02*
X102451006Y-109963112D01*
X101300000Y-111100000D02*
X102436888Y-109963112D01*
D21*
G36*
X78620919Y-103441314D02*
G01*
X81000000Y-105820395D01*
X83379081Y-103441314D01*
X83177509Y-103160000D01*
X121822491Y-103160000D01*
X121620919Y-103441314D01*
X124000000Y-105820395D01*
X126379081Y-103441314D01*
X126177509Y-103160000D01*
X126840000Y-103160000D01*
X126840000Y-103822491D01*
X126558686Y-103620919D01*
X124179605Y-106000000D01*
X126558686Y-108379081D01*
X126840000Y-108177509D01*
X126840001Y-121822492D01*
X126558686Y-121620919D01*
X124179605Y-124000000D01*
X126558686Y-126379081D01*
X126840001Y-126177508D01*
X126840001Y-126840000D01*
X126177509Y-126840000D01*
X126379081Y-126558686D01*
X124000000Y-124179605D01*
X121620919Y-126558686D01*
X121822491Y-126840000D01*
X97164589Y-126840000D01*
X97271680Y-126679727D01*
X97379853Y-126418574D01*
X97435000Y-126141335D01*
X97435000Y-125858665D01*
X97379853Y-125581426D01*
X97271680Y-125320273D01*
X97114637Y-125085241D01*
X96914759Y-124885363D01*
X96679727Y-124728320D01*
X96418574Y-124620147D01*
X96141335Y-124565000D01*
X95858665Y-124565000D01*
X95581426Y-124620147D01*
X95320273Y-124728320D01*
X95085241Y-124885363D01*
X94885363Y-125085241D01*
X94728320Y-125320273D01*
X94620147Y-125581426D01*
X94565000Y-125858665D01*
X94565000Y-126141335D01*
X94620147Y-126418574D01*
X94728320Y-126679727D01*
X94835411Y-126840000D01*
X83177509Y-126840000D01*
X83379081Y-126558686D01*
X81000000Y-124179605D01*
X78620919Y-126558686D01*
X78822491Y-126840000D01*
X78160000Y-126840000D01*
X78160000Y-126177509D01*
X78441314Y-126379081D01*
X80820395Y-124000000D01*
X81179605Y-124000000D01*
X83558686Y-126379081D01*
X84027868Y-126042894D01*
X84368237Y-125412932D01*
X84579166Y-124728673D01*
X84652550Y-124016411D01*
X84585569Y-123303518D01*
X84453203Y-122860000D01*
X87609388Y-122860000D01*
X87631785Y-123087400D01*
X87698115Y-123306060D01*
X87799105Y-123495000D01*
X87698115Y-123683940D01*
X87631785Y-123902600D01*
X87609388Y-124130000D01*
X87631785Y-124357400D01*
X87695093Y-124566098D01*
X87660498Y-124630820D01*
X87624188Y-124750518D01*
X87611928Y-124875000D01*
X87611928Y-125925000D01*
X87624188Y-126049482D01*
X87660498Y-126169180D01*
X87719463Y-126279494D01*
X87798815Y-126376185D01*
X87895506Y-126455537D01*
X88005820Y-126514502D01*
X88125518Y-126550812D01*
X88250000Y-126563072D01*
X89750000Y-126563072D01*
X89874482Y-126550812D01*
X89994180Y-126514502D01*
X90104494Y-126455537D01*
X90201185Y-126376185D01*
X90280537Y-126279494D01*
X90339502Y-126169180D01*
X90375812Y-126049482D01*
X90388072Y-125925000D01*
X90388072Y-124875000D01*
X90375812Y-124750518D01*
X90339502Y-124630820D01*
X90304907Y-124566098D01*
X90368215Y-124357400D01*
X90390612Y-124130000D01*
X90368215Y-123902600D01*
X90301885Y-123683940D01*
X90200895Y-123495000D01*
X90301885Y-123306060D01*
X90368215Y-123087400D01*
X90389967Y-122866544D01*
X99565000Y-122866544D01*
X99565000Y-123133456D01*
X99617072Y-123395239D01*
X99719215Y-123641833D01*
X99867503Y-123863762D01*
X100056238Y-124052497D01*
X100278167Y-124200785D01*
X100524761Y-124302928D01*
X100786544Y-124355000D01*
X101053456Y-124355000D01*
X101315239Y-124302928D01*
X101561833Y-124200785D01*
X101783762Y-124052497D01*
X101972497Y-123863762D01*
X102120785Y-123641833D01*
X102190000Y-123474734D01*
X102259215Y-123641833D01*
X102407503Y-123863762D01*
X102596238Y-124052497D01*
X102818167Y-124200785D01*
X103064761Y-124302928D01*
X103326544Y-124355000D01*
X103593456Y-124355000D01*
X103855239Y-124302928D01*
X104101833Y-124200785D01*
X104323762Y-124052497D01*
X104440699Y-123935560D01*
X105244045Y-123935560D01*
X105305932Y-124171368D01*
X105547790Y-124284266D01*
X105807027Y-124347811D01*
X106073680Y-124359561D01*
X106337501Y-124319063D01*
X106588353Y-124227875D01*
X106694068Y-124171368D01*
X106743349Y-123983589D01*
X120347450Y-123983589D01*
X120414431Y-124696482D01*
X120619204Y-125382609D01*
X120953898Y-126015603D01*
X120972132Y-126042894D01*
X121441314Y-126379081D01*
X123820395Y-124000000D01*
X121441314Y-121620919D01*
X120972132Y-121957106D01*
X120631763Y-122587068D01*
X120420834Y-123271327D01*
X120347450Y-123983589D01*
X106743349Y-123983589D01*
X106755955Y-123935560D01*
X106000000Y-123179605D01*
X105244045Y-123935560D01*
X104440699Y-123935560D01*
X104512497Y-123863762D01*
X104660785Y-123641833D01*
X104730438Y-123473676D01*
X104772125Y-123588353D01*
X104828632Y-123694068D01*
X105064440Y-123755955D01*
X105820395Y-123000000D01*
X106179605Y-123000000D01*
X106935560Y-123755955D01*
X107171368Y-123694068D01*
X107284266Y-123452210D01*
X107347811Y-123192973D01*
X107359561Y-122926320D01*
X107319063Y-122662499D01*
X107227875Y-122411647D01*
X107171368Y-122305932D01*
X106935560Y-122244045D01*
X106179605Y-123000000D01*
X105820395Y-123000000D01*
X105064440Y-122244045D01*
X104828632Y-122305932D01*
X104728236Y-122521007D01*
X104660785Y-122358167D01*
X104512497Y-122136238D01*
X104440699Y-122064440D01*
X105244045Y-122064440D01*
X106000000Y-122820395D01*
X106755955Y-122064440D01*
X106694068Y-121828632D01*
X106452210Y-121715734D01*
X106192973Y-121652189D01*
X105926320Y-121640439D01*
X105662499Y-121680937D01*
X105411647Y-121772125D01*
X105305932Y-121828632D01*
X105244045Y-122064440D01*
X104440699Y-122064440D01*
X104323762Y-121947503D01*
X104101833Y-121799215D01*
X103855239Y-121697072D01*
X103593456Y-121645000D01*
X103326544Y-121645000D01*
X103064761Y-121697072D01*
X102818167Y-121799215D01*
X102596238Y-121947503D01*
X102407503Y-122136238D01*
X102259215Y-122358167D01*
X102190000Y-122525266D01*
X102120785Y-122358167D01*
X101972497Y-122136238D01*
X101783762Y-121947503D01*
X101561833Y-121799215D01*
X101315239Y-121697072D01*
X101053456Y-121645000D01*
X100786544Y-121645000D01*
X100524761Y-121697072D01*
X100278167Y-121799215D01*
X100056238Y-121947503D01*
X99867503Y-122136238D01*
X99719215Y-122358167D01*
X99617072Y-122604761D01*
X99565000Y-122866544D01*
X90389967Y-122866544D01*
X90390612Y-122860000D01*
X90368215Y-122632600D01*
X90301885Y-122413940D01*
X90194171Y-122212421D01*
X90049212Y-122035788D01*
X89872579Y-121890829D01*
X89671060Y-121783115D01*
X89452400Y-121716785D01*
X89281979Y-121700000D01*
X88718021Y-121700000D01*
X88547600Y-121716785D01*
X88328940Y-121783115D01*
X88127421Y-121890829D01*
X87950788Y-122035788D01*
X87805829Y-122212421D01*
X87698115Y-122413940D01*
X87631785Y-122632600D01*
X87609388Y-122860000D01*
X84453203Y-122860000D01*
X84380796Y-122617391D01*
X84046102Y-121984397D01*
X84027868Y-121957106D01*
X83558686Y-121620919D01*
X81179605Y-124000000D01*
X80820395Y-124000000D01*
X78441314Y-121620919D01*
X78160000Y-121822491D01*
X78160000Y-121441314D01*
X78620919Y-121441314D01*
X81000000Y-123820395D01*
X83379081Y-121441314D01*
X83116603Y-121075000D01*
X110511928Y-121075000D01*
X110511928Y-122525000D01*
X110528992Y-122698254D01*
X110579528Y-122864850D01*
X110661595Y-123018386D01*
X110772038Y-123152962D01*
X110906614Y-123263405D01*
X111060150Y-123345472D01*
X111226746Y-123396008D01*
X111400000Y-123413072D01*
X112600000Y-123413072D01*
X112773254Y-123396008D01*
X112939850Y-123345472D01*
X113093386Y-123263405D01*
X113227962Y-123152962D01*
X113338405Y-123018386D01*
X113392777Y-122916663D01*
X113444866Y-122980134D01*
X113670987Y-123165706D01*
X113928967Y-123303599D01*
X114208890Y-123388513D01*
X114500000Y-123417185D01*
X114791111Y-123388513D01*
X115071034Y-123303599D01*
X115329014Y-123165706D01*
X115555134Y-122980134D01*
X115740706Y-122754014D01*
X115750000Y-122736626D01*
X115759294Y-122754014D01*
X115944866Y-122980134D01*
X116170987Y-123165706D01*
X116428967Y-123303599D01*
X116708890Y-123388513D01*
X117000000Y-123417185D01*
X117291111Y-123388513D01*
X117571034Y-123303599D01*
X117829014Y-123165706D01*
X118055134Y-122980134D01*
X118240706Y-122754014D01*
X118378599Y-122496033D01*
X118463513Y-122216110D01*
X118485000Y-121997949D01*
X118485000Y-121602050D01*
X118469169Y-121441314D01*
X121620919Y-121441314D01*
X124000000Y-123820395D01*
X126379081Y-121441314D01*
X126042894Y-120972132D01*
X125412932Y-120631763D01*
X124728673Y-120420834D01*
X124016411Y-120347450D01*
X123303518Y-120414431D01*
X122617391Y-120619204D01*
X121984397Y-120953898D01*
X121957106Y-120972132D01*
X121620919Y-121441314D01*
X118469169Y-121441314D01*
X118463513Y-121383889D01*
X118378599Y-121103966D01*
X118240706Y-120845986D01*
X118055134Y-120619866D01*
X117829013Y-120434294D01*
X117571033Y-120296401D01*
X117291110Y-120211487D01*
X117000000Y-120182815D01*
X116708889Y-120211487D01*
X116428966Y-120296401D01*
X116170986Y-120434294D01*
X115944866Y-120619866D01*
X115759294Y-120845987D01*
X115750000Y-120863374D01*
X115740706Y-120845986D01*
X115555134Y-120619866D01*
X115329013Y-120434294D01*
X115071033Y-120296401D01*
X114791110Y-120211487D01*
X114500000Y-120182815D01*
X114208889Y-120211487D01*
X113928966Y-120296401D01*
X113670986Y-120434294D01*
X113444866Y-120619866D01*
X113392777Y-120683337D01*
X113338405Y-120581614D01*
X113227962Y-120447038D01*
X113093386Y-120336595D01*
X112939850Y-120254528D01*
X112773254Y-120203992D01*
X112600000Y-120186928D01*
X111400000Y-120186928D01*
X111226746Y-120203992D01*
X111060150Y-120254528D01*
X110906614Y-120336595D01*
X110772038Y-120447038D01*
X110661595Y-120581614D01*
X110579528Y-120735150D01*
X110528992Y-120901746D01*
X110511928Y-121075000D01*
X83116603Y-121075000D01*
X83042894Y-120972132D01*
X82412932Y-120631763D01*
X81728673Y-120420834D01*
X81016411Y-120347450D01*
X80303518Y-120414431D01*
X79617391Y-120619204D01*
X78984397Y-120953898D01*
X78957106Y-120972132D01*
X78620919Y-121441314D01*
X78160000Y-121441314D01*
X78160000Y-117514788D01*
X78228320Y-117679727D01*
X78385363Y-117914759D01*
X78585241Y-118114637D01*
X78820273Y-118271680D01*
X79081426Y-118379853D01*
X79358665Y-118435000D01*
X79641335Y-118435000D01*
X79918574Y-118379853D01*
X80179727Y-118271680D01*
X80414759Y-118114637D01*
X80614637Y-117914759D01*
X80750000Y-117712173D01*
X80885363Y-117914759D01*
X81085241Y-118114637D01*
X81320273Y-118271680D01*
X81581426Y-118379853D01*
X81858665Y-118435000D01*
X82141335Y-118435000D01*
X82418574Y-118379853D01*
X82679727Y-118271680D01*
X82914759Y-118114637D01*
X82959396Y-118070000D01*
X86909388Y-118070000D01*
X86931785Y-118297400D01*
X86998115Y-118516060D01*
X87099105Y-118705000D01*
X86998115Y-118893940D01*
X86931785Y-119112600D01*
X86909388Y-119340000D01*
X86931785Y-119567400D01*
X86998115Y-119786060D01*
X87105829Y-119987579D01*
X87250788Y-120164212D01*
X87427421Y-120309171D01*
X87628940Y-120416885D01*
X87847600Y-120483215D01*
X88018021Y-120500000D01*
X88581979Y-120500000D01*
X88752400Y-120483215D01*
X88971060Y-120416885D01*
X89172579Y-120309171D01*
X89349212Y-120164212D01*
X89494171Y-119987579D01*
X89601885Y-119786060D01*
X89668215Y-119567400D01*
X89690612Y-119340000D01*
X89668215Y-119112600D01*
X89601885Y-118893940D01*
X89500895Y-118705000D01*
X89601885Y-118516060D01*
X89668215Y-118297400D01*
X89673999Y-118238665D01*
X94565000Y-118238665D01*
X94565000Y-118521335D01*
X94620147Y-118798574D01*
X94728320Y-119059727D01*
X94885363Y-119294759D01*
X95085241Y-119494637D01*
X95320273Y-119651680D01*
X95581426Y-119759853D01*
X95858665Y-119815000D01*
X96141335Y-119815000D01*
X96418574Y-119759853D01*
X96679727Y-119651680D01*
X96914759Y-119494637D01*
X97114637Y-119294759D01*
X97271680Y-119059727D01*
X97379853Y-118798574D01*
X97435000Y-118521335D01*
X97435000Y-118238665D01*
X97379853Y-117961426D01*
X97271680Y-117700273D01*
X97114637Y-117465241D01*
X96914759Y-117265363D01*
X96679727Y-117108320D01*
X96418574Y-117000147D01*
X96141335Y-116945000D01*
X95858665Y-116945000D01*
X95581426Y-117000147D01*
X95320273Y-117108320D01*
X95085241Y-117265363D01*
X94885363Y-117465241D01*
X94728320Y-117700273D01*
X94620147Y-117961426D01*
X94565000Y-118238665D01*
X89673999Y-118238665D01*
X89690612Y-118070000D01*
X89668215Y-117842600D01*
X89604907Y-117633902D01*
X89639502Y-117569180D01*
X89675812Y-117449482D01*
X89688072Y-117325000D01*
X89688072Y-116275000D01*
X89675812Y-116150518D01*
X89639502Y-116030820D01*
X89580537Y-115920506D01*
X89501185Y-115823815D01*
X89404494Y-115744463D01*
X89294180Y-115685498D01*
X89174482Y-115649188D01*
X89050000Y-115636928D01*
X87550000Y-115636928D01*
X87425518Y-115649188D01*
X87305820Y-115685498D01*
X87195506Y-115744463D01*
X87098815Y-115823815D01*
X87019463Y-115920506D01*
X86960498Y-116030820D01*
X86924188Y-116150518D01*
X86911928Y-116275000D01*
X86911928Y-117325000D01*
X86924188Y-117449482D01*
X86960498Y-117569180D01*
X86995093Y-117633902D01*
X86931785Y-117842600D01*
X86909388Y-118070000D01*
X82959396Y-118070000D01*
X83114637Y-117914759D01*
X83271680Y-117679727D01*
X83379853Y-117418574D01*
X83435000Y-117141335D01*
X83435000Y-116858665D01*
X83379853Y-116581426D01*
X83271680Y-116320273D01*
X83114637Y-116085241D01*
X82914759Y-115885363D01*
X82679727Y-115728320D01*
X82418574Y-115620147D01*
X82141335Y-115565000D01*
X81858665Y-115565000D01*
X81581426Y-115620147D01*
X81320273Y-115728320D01*
X81085241Y-115885363D01*
X80885363Y-116085241D01*
X80750000Y-116287827D01*
X80614637Y-116085241D01*
X80414759Y-115885363D01*
X80179727Y-115728320D01*
X79918574Y-115620147D01*
X79641335Y-115565000D01*
X79358665Y-115565000D01*
X79081426Y-115620147D01*
X78820273Y-115728320D01*
X78585241Y-115885363D01*
X78385363Y-116085241D01*
X78228320Y-116320273D01*
X78160000Y-116485212D01*
X78160000Y-113514788D01*
X78228320Y-113679727D01*
X78385363Y-113914759D01*
X78585241Y-114114637D01*
X78820273Y-114271680D01*
X79081426Y-114379853D01*
X79358665Y-114435000D01*
X79641335Y-114435000D01*
X79918574Y-114379853D01*
X80179727Y-114271680D01*
X80414759Y-114114637D01*
X80614637Y-113914759D01*
X80750000Y-113712173D01*
X80885363Y-113914759D01*
X81085241Y-114114637D01*
X81320273Y-114271680D01*
X81581426Y-114379853D01*
X81858665Y-114435000D01*
X82141335Y-114435000D01*
X82418574Y-114379853D01*
X82679727Y-114271680D01*
X82914759Y-114114637D01*
X83114637Y-113914759D01*
X83271680Y-113679727D01*
X83379853Y-113418574D01*
X83390054Y-113367290D01*
X83420147Y-113518574D01*
X83528320Y-113779727D01*
X83685363Y-114014759D01*
X83885241Y-114214637D01*
X84120273Y-114371680D01*
X84381426Y-114479853D01*
X84658665Y-114535000D01*
X84941335Y-114535000D01*
X85218574Y-114479853D01*
X85479727Y-114371680D01*
X85714759Y-114214637D01*
X85914637Y-114014759D01*
X86071680Y-113779727D01*
X86179853Y-113518574D01*
X86235000Y-113241335D01*
X86235000Y-112958665D01*
X90985000Y-112958665D01*
X90985000Y-113241335D01*
X91040147Y-113518574D01*
X91148320Y-113779727D01*
X91305363Y-114014759D01*
X91505241Y-114214637D01*
X91740273Y-114371680D01*
X92001426Y-114479853D01*
X92278665Y-114535000D01*
X92561335Y-114535000D01*
X92838574Y-114479853D01*
X92889726Y-114458665D01*
X94265000Y-114458665D01*
X94265000Y-114741335D01*
X94320147Y-115018574D01*
X94428320Y-115279727D01*
X94585363Y-115514759D01*
X94785241Y-115714637D01*
X95020273Y-115871680D01*
X95281426Y-115979853D01*
X95558665Y-116035000D01*
X95841335Y-116035000D01*
X96118574Y-115979853D01*
X96379727Y-115871680D01*
X96614759Y-115714637D01*
X96814637Y-115514759D01*
X96950000Y-115312173D01*
X97085363Y-115514759D01*
X97285241Y-115714637D01*
X97520273Y-115871680D01*
X97781426Y-115979853D01*
X98058665Y-116035000D01*
X98341335Y-116035000D01*
X98618574Y-115979853D01*
X98879727Y-115871680D01*
X99114759Y-115714637D01*
X99314637Y-115514759D01*
X99471680Y-115279727D01*
X99579853Y-115018574D01*
X99635000Y-114741335D01*
X99635000Y-114458665D01*
X99579853Y-114181426D01*
X99471680Y-113920273D01*
X99314637Y-113685241D01*
X99114759Y-113485363D01*
X98879727Y-113328320D01*
X98618574Y-113220147D01*
X98341335Y-113165000D01*
X98058665Y-113165000D01*
X97781426Y-113220147D01*
X97520273Y-113328320D01*
X97285241Y-113485363D01*
X97085363Y-113685241D01*
X96950000Y-113887827D01*
X96814637Y-113685241D01*
X96614759Y-113485363D01*
X96379727Y-113328320D01*
X96118574Y-113220147D01*
X95841335Y-113165000D01*
X95558665Y-113165000D01*
X95281426Y-113220147D01*
X95020273Y-113328320D01*
X94785241Y-113485363D01*
X94585363Y-113685241D01*
X94428320Y-113920273D01*
X94320147Y-114181426D01*
X94265000Y-114458665D01*
X92889726Y-114458665D01*
X93099727Y-114371680D01*
X93334759Y-114214637D01*
X93534637Y-114014759D01*
X93691680Y-113779727D01*
X93799853Y-113518574D01*
X93855000Y-113241335D01*
X93855000Y-112958665D01*
X93833385Y-112850000D01*
X106111928Y-112850000D01*
X106111928Y-114350000D01*
X106128992Y-114523254D01*
X106179528Y-114689850D01*
X106261595Y-114843386D01*
X106372038Y-114977962D01*
X106506614Y-115088405D01*
X106660150Y-115170472D01*
X106826746Y-115221008D01*
X107000000Y-115238072D01*
X108200000Y-115238072D01*
X108373254Y-115221008D01*
X108539850Y-115170472D01*
X108693386Y-115088405D01*
X108827962Y-114977962D01*
X108938405Y-114843386D01*
X108992777Y-114741663D01*
X109044866Y-114805134D01*
X109270987Y-114990706D01*
X109528967Y-115128599D01*
X109808890Y-115213513D01*
X110100000Y-115242185D01*
X110391111Y-115213513D01*
X110671034Y-115128599D01*
X110929014Y-114990706D01*
X111155134Y-114805134D01*
X111340706Y-114579014D01*
X111478599Y-114321033D01*
X111563513Y-114041110D01*
X111585000Y-113822949D01*
X111585000Y-113377050D01*
X111563513Y-113158889D01*
X111478599Y-112878966D01*
X111467748Y-112858665D01*
X121565000Y-112858665D01*
X121565000Y-113141335D01*
X121620147Y-113418574D01*
X121728320Y-113679727D01*
X121885363Y-113914759D01*
X121970604Y-114000000D01*
X121885363Y-114085241D01*
X121728320Y-114320273D01*
X121620147Y-114581426D01*
X121565000Y-114858665D01*
X121565000Y-115141335D01*
X121620147Y-115418574D01*
X121728320Y-115679727D01*
X121885363Y-115914759D01*
X122085241Y-116114637D01*
X122320273Y-116271680D01*
X122581426Y-116379853D01*
X122858665Y-116435000D01*
X123141335Y-116435000D01*
X123418574Y-116379853D01*
X123679727Y-116271680D01*
X123914759Y-116114637D01*
X124114637Y-115914759D01*
X124271680Y-115679727D01*
X124379853Y-115418574D01*
X124435000Y-115141335D01*
X124435000Y-114858665D01*
X124379853Y-114581426D01*
X124271680Y-114320273D01*
X124114637Y-114085241D01*
X124029396Y-114000000D01*
X124114637Y-113914759D01*
X124271680Y-113679727D01*
X124379853Y-113418574D01*
X124435000Y-113141335D01*
X124435000Y-112858665D01*
X124379853Y-112581426D01*
X124271680Y-112320273D01*
X124114637Y-112085241D01*
X123914759Y-111885363D01*
X123679727Y-111728320D01*
X123418574Y-111620147D01*
X123141335Y-111565000D01*
X122858665Y-111565000D01*
X122581426Y-111620147D01*
X122320273Y-111728320D01*
X122085241Y-111885363D01*
X121885363Y-112085241D01*
X121728320Y-112320273D01*
X121620147Y-112581426D01*
X121565000Y-112858665D01*
X111467748Y-112858665D01*
X111340706Y-112620986D01*
X111155134Y-112394866D01*
X110929013Y-112209294D01*
X110671033Y-112071401D01*
X110391110Y-111986487D01*
X110100000Y-111957815D01*
X109808889Y-111986487D01*
X109528966Y-112071401D01*
X109270986Y-112209294D01*
X109044866Y-112394866D01*
X108992777Y-112458337D01*
X108938405Y-112356614D01*
X108827962Y-112222038D01*
X108693386Y-112111595D01*
X108539850Y-112029528D01*
X108373254Y-111978992D01*
X108200000Y-111961928D01*
X107000000Y-111961928D01*
X106826746Y-111978992D01*
X106660150Y-112029528D01*
X106506614Y-112111595D01*
X106372038Y-112222038D01*
X106261595Y-112356614D01*
X106179528Y-112510150D01*
X106128992Y-112676746D01*
X106111928Y-112850000D01*
X93833385Y-112850000D01*
X93799853Y-112681426D01*
X93691680Y-112420273D01*
X93534637Y-112185241D01*
X93334759Y-111985363D01*
X93099727Y-111828320D01*
X92838574Y-111720147D01*
X92561335Y-111665000D01*
X92278665Y-111665000D01*
X92001426Y-111720147D01*
X91740273Y-111828320D01*
X91505241Y-111985363D01*
X91305363Y-112185241D01*
X91148320Y-112420273D01*
X91040147Y-112681426D01*
X90985000Y-112958665D01*
X86235000Y-112958665D01*
X86179853Y-112681426D01*
X86071680Y-112420273D01*
X85914637Y-112185241D01*
X85714759Y-111985363D01*
X85479727Y-111828320D01*
X85218574Y-111720147D01*
X84941335Y-111665000D01*
X84658665Y-111665000D01*
X84381426Y-111720147D01*
X84120273Y-111828320D01*
X83885241Y-111985363D01*
X83685363Y-112185241D01*
X83528320Y-112420273D01*
X83420147Y-112681426D01*
X83409946Y-112732710D01*
X83379853Y-112581426D01*
X83271680Y-112320273D01*
X83114637Y-112085241D01*
X82914759Y-111885363D01*
X82679727Y-111728320D01*
X82418574Y-111620147D01*
X82141335Y-111565000D01*
X81858665Y-111565000D01*
X81581426Y-111620147D01*
X81320273Y-111728320D01*
X81085241Y-111885363D01*
X80885363Y-112085241D01*
X80750000Y-112287827D01*
X80614637Y-112085241D01*
X80414759Y-111885363D01*
X80179727Y-111728320D01*
X79918574Y-111620147D01*
X79641335Y-111565000D01*
X79358665Y-111565000D01*
X79081426Y-111620147D01*
X78820273Y-111728320D01*
X78585241Y-111885363D01*
X78385363Y-112085241D01*
X78228320Y-112320273D01*
X78160000Y-112485212D01*
X78160000Y-110998061D01*
X100265000Y-110998061D01*
X100265000Y-111201939D01*
X100304774Y-111401898D01*
X100382795Y-111590256D01*
X100496063Y-111759774D01*
X100640226Y-111903937D01*
X100809744Y-112017205D01*
X100998102Y-112095226D01*
X101198061Y-112135000D01*
X101401939Y-112135000D01*
X101601898Y-112095226D01*
X101790256Y-112017205D01*
X101959774Y-111903937D01*
X102103937Y-111759774D01*
X102217205Y-111590256D01*
X102295226Y-111401898D01*
X102327428Y-111240004D01*
X102573387Y-110994046D01*
X102752904Y-110958338D01*
X102941262Y-110880317D01*
X103110780Y-110767049D01*
X103254943Y-110622886D01*
X103368211Y-110453368D01*
X103446232Y-110265010D01*
X103486006Y-110065051D01*
X103486006Y-109861173D01*
X103485508Y-109858665D01*
X114565000Y-109858665D01*
X114565000Y-110141335D01*
X114620147Y-110418574D01*
X114728320Y-110679727D01*
X114885363Y-110914759D01*
X115085241Y-111114637D01*
X115320273Y-111271680D01*
X115581426Y-111379853D01*
X115858665Y-111435000D01*
X116141335Y-111435000D01*
X116418574Y-111379853D01*
X116679727Y-111271680D01*
X116914759Y-111114637D01*
X117114637Y-110914759D01*
X117250000Y-110712173D01*
X117385363Y-110914759D01*
X117585241Y-111114637D01*
X117820273Y-111271680D01*
X118081426Y-111379853D01*
X118358665Y-111435000D01*
X118641335Y-111435000D01*
X118918574Y-111379853D01*
X119179727Y-111271680D01*
X119414759Y-111114637D01*
X119614637Y-110914759D01*
X119771680Y-110679727D01*
X119879853Y-110418574D01*
X119935000Y-110141335D01*
X119935000Y-109858665D01*
X119879853Y-109581426D01*
X119771680Y-109320273D01*
X119614637Y-109085241D01*
X119414759Y-108885363D01*
X119179727Y-108728320D01*
X118918574Y-108620147D01*
X118641335Y-108565000D01*
X118358665Y-108565000D01*
X118081426Y-108620147D01*
X117820273Y-108728320D01*
X117585241Y-108885363D01*
X117385363Y-109085241D01*
X117250000Y-109287827D01*
X117114637Y-109085241D01*
X116914759Y-108885363D01*
X116679727Y-108728320D01*
X116418574Y-108620147D01*
X116141335Y-108565000D01*
X115858665Y-108565000D01*
X115581426Y-108620147D01*
X115320273Y-108728320D01*
X115085241Y-108885363D01*
X114885363Y-109085241D01*
X114728320Y-109320273D01*
X114620147Y-109581426D01*
X114565000Y-109858665D01*
X103485508Y-109858665D01*
X103446232Y-109661214D01*
X103368211Y-109472856D01*
X103254943Y-109303338D01*
X103110780Y-109159175D01*
X102941262Y-109045907D01*
X102752904Y-108967886D01*
X102552945Y-108928112D01*
X102349067Y-108928112D01*
X102149108Y-108967886D01*
X101960750Y-109045907D01*
X101791232Y-109159175D01*
X101647069Y-109303338D01*
X101533801Y-109472856D01*
X101455780Y-109661214D01*
X101427083Y-109805484D01*
X101159996Y-110072572D01*
X100998102Y-110104774D01*
X100809744Y-110182795D01*
X100640226Y-110296063D01*
X100496063Y-110440226D01*
X100382795Y-110609744D01*
X100304774Y-110798102D01*
X100265000Y-110998061D01*
X78160000Y-110998061D01*
X78160000Y-108558686D01*
X78620919Y-108558686D01*
X78957106Y-109027868D01*
X79587068Y-109368237D01*
X80271327Y-109579166D01*
X80983589Y-109652550D01*
X81696482Y-109585569D01*
X82382609Y-109380796D01*
X83015603Y-109046102D01*
X83042894Y-109027868D01*
X83379081Y-108558686D01*
X81000000Y-106179605D01*
X78620919Y-108558686D01*
X78160000Y-108558686D01*
X78160000Y-108177509D01*
X78441314Y-108379081D01*
X80820395Y-106000000D01*
X81179605Y-106000000D01*
X83558686Y-108379081D01*
X84027868Y-108042894D01*
X84064551Y-107975000D01*
X86911928Y-107975000D01*
X86924188Y-108099482D01*
X86960498Y-108219180D01*
X87019463Y-108329494D01*
X87098815Y-108426185D01*
X87195506Y-108505537D01*
X87305820Y-108564502D01*
X87425518Y-108600812D01*
X87550000Y-108613072D01*
X88114250Y-108610000D01*
X88273000Y-108451250D01*
X88273000Y-107127000D01*
X87073750Y-107127000D01*
X86915000Y-107285750D01*
X86911928Y-107975000D01*
X84064551Y-107975000D01*
X84368237Y-107412932D01*
X84579166Y-106728673D01*
X84651665Y-106025000D01*
X86911928Y-106025000D01*
X86915000Y-106714250D01*
X87073750Y-106873000D01*
X88273000Y-106873000D01*
X88273000Y-105548750D01*
X88527000Y-105548750D01*
X88527000Y-106873000D01*
X88547000Y-106873000D01*
X88547000Y-107127000D01*
X88527000Y-107127000D01*
X88527000Y-108451250D01*
X88685750Y-108610000D01*
X89250000Y-108613072D01*
X89374482Y-108600812D01*
X89494180Y-108564502D01*
X89604494Y-108505537D01*
X89701185Y-108426185D01*
X89780537Y-108329494D01*
X89839502Y-108219180D01*
X89850055Y-108184392D01*
X90070987Y-108365706D01*
X90328967Y-108503599D01*
X90608890Y-108588513D01*
X90900000Y-108617185D01*
X91191111Y-108588513D01*
X91471034Y-108503599D01*
X91729014Y-108365706D01*
X91955134Y-108180134D01*
X92140706Y-107954014D01*
X92150000Y-107936626D01*
X92159294Y-107954014D01*
X92344866Y-108180134D01*
X92570987Y-108365706D01*
X92828967Y-108503599D01*
X93108890Y-108588513D01*
X93400000Y-108617185D01*
X93691111Y-108588513D01*
X93971034Y-108503599D01*
X94229014Y-108365706D01*
X94455134Y-108180134D01*
X94640706Y-107954014D01*
X94650000Y-107936626D01*
X94659294Y-107954014D01*
X94844866Y-108180134D01*
X95070987Y-108365706D01*
X95328967Y-108503599D01*
X95608890Y-108588513D01*
X95900000Y-108617185D01*
X96191111Y-108588513D01*
X96289437Y-108558686D01*
X121620919Y-108558686D01*
X121957106Y-109027868D01*
X122587068Y-109368237D01*
X123271327Y-109579166D01*
X123983589Y-109652550D01*
X124696482Y-109585569D01*
X125382609Y-109380796D01*
X126015603Y-109046102D01*
X126042894Y-109027868D01*
X126379081Y-108558686D01*
X124000000Y-106179605D01*
X121620919Y-108558686D01*
X96289437Y-108558686D01*
X96471034Y-108503599D01*
X96729014Y-108365706D01*
X96955134Y-108180134D01*
X97140706Y-107954014D01*
X97278599Y-107696033D01*
X97363513Y-107416110D01*
X97385000Y-107197949D01*
X97385000Y-106802050D01*
X97381503Y-106766544D01*
X101645000Y-106766544D01*
X101645000Y-107033456D01*
X101697072Y-107295239D01*
X101799215Y-107541833D01*
X101947503Y-107763762D01*
X102136238Y-107952497D01*
X102358167Y-108100785D01*
X102604761Y-108202928D01*
X102866544Y-108255000D01*
X103133456Y-108255000D01*
X103395239Y-108202928D01*
X103641833Y-108100785D01*
X103863762Y-107952497D01*
X104052497Y-107763762D01*
X104200785Y-107541833D01*
X104270000Y-107374734D01*
X104339215Y-107541833D01*
X104487503Y-107763762D01*
X104676238Y-107952497D01*
X104898167Y-108100785D01*
X105144761Y-108202928D01*
X105406544Y-108255000D01*
X105673456Y-108255000D01*
X105935239Y-108202928D01*
X106181833Y-108100785D01*
X106403762Y-107952497D01*
X106592497Y-107763762D01*
X106740785Y-107541833D01*
X106810000Y-107374734D01*
X106879215Y-107541833D01*
X107027503Y-107763762D01*
X107216238Y-107952497D01*
X107438167Y-108100785D01*
X107684761Y-108202928D01*
X107946544Y-108255000D01*
X108213456Y-108255000D01*
X108475239Y-108202928D01*
X108721833Y-108100785D01*
X108943762Y-107952497D01*
X109132497Y-107763762D01*
X109280785Y-107541833D01*
X109382928Y-107295239D01*
X109435000Y-107033456D01*
X109435000Y-106992702D01*
X110186903Y-106992702D01*
X110258486Y-107236671D01*
X110513996Y-107357571D01*
X110788184Y-107426300D01*
X111070512Y-107440217D01*
X111350130Y-107398787D01*
X111616292Y-107303603D01*
X111741514Y-107236671D01*
X111813097Y-106992702D01*
X111000000Y-106179605D01*
X110186903Y-106992702D01*
X109435000Y-106992702D01*
X109435000Y-106766544D01*
X109382928Y-106504761D01*
X109280785Y-106258167D01*
X109155399Y-106070512D01*
X109559783Y-106070512D01*
X109601213Y-106350130D01*
X109696397Y-106616292D01*
X109763329Y-106741514D01*
X110007298Y-106813097D01*
X110820395Y-106000000D01*
X111179605Y-106000000D01*
X111992702Y-106813097D01*
X112236671Y-106741514D01*
X112357571Y-106486004D01*
X112426300Y-106211816D01*
X112440217Y-105929488D01*
X112429724Y-105858665D01*
X117185000Y-105858665D01*
X117185000Y-106141335D01*
X117240147Y-106418574D01*
X117348320Y-106679727D01*
X117505363Y-106914759D01*
X117705241Y-107114637D01*
X117940273Y-107271680D01*
X118201426Y-107379853D01*
X118478665Y-107435000D01*
X118761335Y-107435000D01*
X119038574Y-107379853D01*
X119299727Y-107271680D01*
X119534759Y-107114637D01*
X119734637Y-106914759D01*
X119891680Y-106679727D01*
X119999853Y-106418574D01*
X120055000Y-106141335D01*
X120055000Y-105983589D01*
X120347450Y-105983589D01*
X120414431Y-106696482D01*
X120619204Y-107382609D01*
X120953898Y-108015603D01*
X120972132Y-108042894D01*
X121441314Y-108379081D01*
X123820395Y-106000000D01*
X121441314Y-103620919D01*
X120972132Y-103957106D01*
X120631763Y-104587068D01*
X120420834Y-105271327D01*
X120347450Y-105983589D01*
X120055000Y-105983589D01*
X120055000Y-105858665D01*
X119999853Y-105581426D01*
X119891680Y-105320273D01*
X119734637Y-105085241D01*
X119534759Y-104885363D01*
X119299727Y-104728320D01*
X119038574Y-104620147D01*
X118761335Y-104565000D01*
X118478665Y-104565000D01*
X118201426Y-104620147D01*
X117940273Y-104728320D01*
X117705241Y-104885363D01*
X117505363Y-105085241D01*
X117348320Y-105320273D01*
X117240147Y-105581426D01*
X117185000Y-105858665D01*
X112429724Y-105858665D01*
X112398787Y-105649870D01*
X112303603Y-105383708D01*
X112236671Y-105258486D01*
X111992702Y-105186903D01*
X111179605Y-106000000D01*
X110820395Y-106000000D01*
X110007298Y-105186903D01*
X109763329Y-105258486D01*
X109642429Y-105513996D01*
X109573700Y-105788184D01*
X109559783Y-106070512D01*
X109155399Y-106070512D01*
X109132497Y-106036238D01*
X108943762Y-105847503D01*
X108721833Y-105699215D01*
X108475239Y-105597072D01*
X108213456Y-105545000D01*
X107946544Y-105545000D01*
X107684761Y-105597072D01*
X107438167Y-105699215D01*
X107216238Y-105847503D01*
X107027503Y-106036238D01*
X106879215Y-106258167D01*
X106810000Y-106425266D01*
X106740785Y-106258167D01*
X106592497Y-106036238D01*
X106403762Y-105847503D01*
X106181833Y-105699215D01*
X105935239Y-105597072D01*
X105673456Y-105545000D01*
X105406544Y-105545000D01*
X105144761Y-105597072D01*
X104898167Y-105699215D01*
X104676238Y-105847503D01*
X104487503Y-106036238D01*
X104339215Y-106258167D01*
X104270000Y-106425266D01*
X104200785Y-106258167D01*
X104052497Y-106036238D01*
X103863762Y-105847503D01*
X103641833Y-105699215D01*
X103395239Y-105597072D01*
X103133456Y-105545000D01*
X102866544Y-105545000D01*
X102604761Y-105597072D01*
X102358167Y-105699215D01*
X102136238Y-105847503D01*
X101947503Y-106036238D01*
X101799215Y-106258167D01*
X101697072Y-106504761D01*
X101645000Y-106766544D01*
X97381503Y-106766544D01*
X97363513Y-106583889D01*
X97278599Y-106303966D01*
X97140706Y-106045986D01*
X96955134Y-105819866D01*
X96729013Y-105634294D01*
X96471033Y-105496401D01*
X96191110Y-105411487D01*
X95900000Y-105382815D01*
X95608889Y-105411487D01*
X95328966Y-105496401D01*
X95070986Y-105634294D01*
X94844866Y-105819866D01*
X94659294Y-106045987D01*
X94650000Y-106063374D01*
X94640706Y-106045986D01*
X94455134Y-105819866D01*
X94229013Y-105634294D01*
X93971033Y-105496401D01*
X93691110Y-105411487D01*
X93400000Y-105382815D01*
X93108889Y-105411487D01*
X92828966Y-105496401D01*
X92570986Y-105634294D01*
X92344866Y-105819866D01*
X92159294Y-106045987D01*
X92150000Y-106063374D01*
X92140706Y-106045986D01*
X91955134Y-105819866D01*
X91729013Y-105634294D01*
X91471033Y-105496401D01*
X91191110Y-105411487D01*
X90900000Y-105382815D01*
X90608889Y-105411487D01*
X90328966Y-105496401D01*
X90070986Y-105634294D01*
X89850055Y-105815608D01*
X89839502Y-105780820D01*
X89780537Y-105670506D01*
X89701185Y-105573815D01*
X89604494Y-105494463D01*
X89494180Y-105435498D01*
X89374482Y-105399188D01*
X89250000Y-105386928D01*
X88685750Y-105390000D01*
X88527000Y-105548750D01*
X88273000Y-105548750D01*
X88114250Y-105390000D01*
X87550000Y-105386928D01*
X87425518Y-105399188D01*
X87305820Y-105435498D01*
X87195506Y-105494463D01*
X87098815Y-105573815D01*
X87019463Y-105670506D01*
X86960498Y-105780820D01*
X86924188Y-105900518D01*
X86911928Y-106025000D01*
X84651665Y-106025000D01*
X84652550Y-106016411D01*
X84585569Y-105303518D01*
X84497163Y-105007298D01*
X110186903Y-105007298D01*
X111000000Y-105820395D01*
X111813097Y-105007298D01*
X111741514Y-104763329D01*
X111486004Y-104642429D01*
X111211816Y-104573700D01*
X110929488Y-104559783D01*
X110649870Y-104601213D01*
X110383708Y-104696397D01*
X110258486Y-104763329D01*
X110186903Y-105007298D01*
X84497163Y-105007298D01*
X84380796Y-104617391D01*
X84046102Y-103984397D01*
X84027868Y-103957106D01*
X83558686Y-103620919D01*
X81179605Y-106000000D01*
X80820395Y-106000000D01*
X78441314Y-103620919D01*
X78160000Y-103822491D01*
X78160000Y-103160000D01*
X78822491Y-103160000D01*
X78620919Y-103441314D01*
G37*
X78620919Y-103441314D02*
X81000000Y-105820395D01*
X83379081Y-103441314D01*
X83177509Y-103160000D01*
X121822491Y-103160000D01*
X121620919Y-103441314D01*
X124000000Y-105820395D01*
X126379081Y-103441314D01*
X126177509Y-103160000D01*
X126840000Y-103160000D01*
X126840000Y-103822491D01*
X126558686Y-103620919D01*
X124179605Y-106000000D01*
X126558686Y-108379081D01*
X126840000Y-108177509D01*
X126840001Y-121822492D01*
X126558686Y-121620919D01*
X124179605Y-124000000D01*
X126558686Y-126379081D01*
X126840001Y-126177508D01*
X126840001Y-126840000D01*
X126177509Y-126840000D01*
X126379081Y-126558686D01*
X124000000Y-124179605D01*
X121620919Y-126558686D01*
X121822491Y-126840000D01*
X97164589Y-126840000D01*
X97271680Y-126679727D01*
X97379853Y-126418574D01*
X97435000Y-126141335D01*
X97435000Y-125858665D01*
X97379853Y-125581426D01*
X97271680Y-125320273D01*
X97114637Y-125085241D01*
X96914759Y-124885363D01*
X96679727Y-124728320D01*
X96418574Y-124620147D01*
X96141335Y-124565000D01*
X95858665Y-124565000D01*
X95581426Y-124620147D01*
X95320273Y-124728320D01*
X95085241Y-124885363D01*
X94885363Y-125085241D01*
X94728320Y-125320273D01*
X94620147Y-125581426D01*
X94565000Y-125858665D01*
X94565000Y-126141335D01*
X94620147Y-126418574D01*
X94728320Y-126679727D01*
X94835411Y-126840000D01*
X83177509Y-126840000D01*
X83379081Y-126558686D01*
X81000000Y-124179605D01*
X78620919Y-126558686D01*
X78822491Y-126840000D01*
X78160000Y-126840000D01*
X78160000Y-126177509D01*
X78441314Y-126379081D01*
X80820395Y-124000000D01*
X81179605Y-124000000D01*
X83558686Y-126379081D01*
X84027868Y-126042894D01*
X84368237Y-125412932D01*
X84579166Y-124728673D01*
X84652550Y-124016411D01*
X84585569Y-123303518D01*
X84453203Y-122860000D01*
X87609388Y-122860000D01*
X87631785Y-123087400D01*
X87698115Y-123306060D01*
X87799105Y-123495000D01*
X87698115Y-123683940D01*
X87631785Y-123902600D01*
X87609388Y-124130000D01*
X87631785Y-124357400D01*
X87695093Y-124566098D01*
X87660498Y-124630820D01*
X87624188Y-124750518D01*
X87611928Y-124875000D01*
X87611928Y-125925000D01*
X87624188Y-126049482D01*
X87660498Y-126169180D01*
X87719463Y-126279494D01*
X87798815Y-126376185D01*
X87895506Y-126455537D01*
X88005820Y-126514502D01*
X88125518Y-126550812D01*
X88250000Y-126563072D01*
X89750000Y-126563072D01*
X89874482Y-126550812D01*
X89994180Y-126514502D01*
X90104494Y-126455537D01*
X90201185Y-126376185D01*
X90280537Y-126279494D01*
X90339502Y-126169180D01*
X90375812Y-126049482D01*
X90388072Y-125925000D01*
X90388072Y-124875000D01*
X90375812Y-124750518D01*
X90339502Y-124630820D01*
X90304907Y-124566098D01*
X90368215Y-124357400D01*
X90390612Y-124130000D01*
X90368215Y-123902600D01*
X90301885Y-123683940D01*
X90200895Y-123495000D01*
X90301885Y-123306060D01*
X90368215Y-123087400D01*
X90389967Y-122866544D01*
X99565000Y-122866544D01*
X99565000Y-123133456D01*
X99617072Y-123395239D01*
X99719215Y-123641833D01*
X99867503Y-123863762D01*
X100056238Y-124052497D01*
X100278167Y-124200785D01*
X100524761Y-124302928D01*
X100786544Y-124355000D01*
X101053456Y-124355000D01*
X101315239Y-124302928D01*
X101561833Y-124200785D01*
X101783762Y-124052497D01*
X101972497Y-123863762D01*
X102120785Y-123641833D01*
X102190000Y-123474734D01*
X102259215Y-123641833D01*
X102407503Y-123863762D01*
X102596238Y-124052497D01*
X102818167Y-124200785D01*
X103064761Y-124302928D01*
X103326544Y-124355000D01*
X103593456Y-124355000D01*
X103855239Y-124302928D01*
X104101833Y-124200785D01*
X104323762Y-124052497D01*
X104440699Y-123935560D01*
X105244045Y-123935560D01*
X105305932Y-124171368D01*
X105547790Y-124284266D01*
X105807027Y-124347811D01*
X106073680Y-124359561D01*
X106337501Y-124319063D01*
X106588353Y-124227875D01*
X106694068Y-124171368D01*
X106743349Y-123983589D01*
X120347450Y-123983589D01*
X120414431Y-124696482D01*
X120619204Y-125382609D01*
X120953898Y-126015603D01*
X120972132Y-126042894D01*
X121441314Y-126379081D01*
X123820395Y-124000000D01*
X121441314Y-121620919D01*
X120972132Y-121957106D01*
X120631763Y-122587068D01*
X120420834Y-123271327D01*
X120347450Y-123983589D01*
X106743349Y-123983589D01*
X106755955Y-123935560D01*
X106000000Y-123179605D01*
X105244045Y-123935560D01*
X104440699Y-123935560D01*
X104512497Y-123863762D01*
X104660785Y-123641833D01*
X104730438Y-123473676D01*
X104772125Y-123588353D01*
X104828632Y-123694068D01*
X105064440Y-123755955D01*
X105820395Y-123000000D01*
X106179605Y-123000000D01*
X106935560Y-123755955D01*
X107171368Y-123694068D01*
X107284266Y-123452210D01*
X107347811Y-123192973D01*
X107359561Y-122926320D01*
X107319063Y-122662499D01*
X107227875Y-122411647D01*
X107171368Y-122305932D01*
X106935560Y-122244045D01*
X106179605Y-123000000D01*
X105820395Y-123000000D01*
X105064440Y-122244045D01*
X104828632Y-122305932D01*
X104728236Y-122521007D01*
X104660785Y-122358167D01*
X104512497Y-122136238D01*
X104440699Y-122064440D01*
X105244045Y-122064440D01*
X106000000Y-122820395D01*
X106755955Y-122064440D01*
X106694068Y-121828632D01*
X106452210Y-121715734D01*
X106192973Y-121652189D01*
X105926320Y-121640439D01*
X105662499Y-121680937D01*
X105411647Y-121772125D01*
X105305932Y-121828632D01*
X105244045Y-122064440D01*
X104440699Y-122064440D01*
X104323762Y-121947503D01*
X104101833Y-121799215D01*
X103855239Y-121697072D01*
X103593456Y-121645000D01*
X103326544Y-121645000D01*
X103064761Y-121697072D01*
X102818167Y-121799215D01*
X102596238Y-121947503D01*
X102407503Y-122136238D01*
X102259215Y-122358167D01*
X102190000Y-122525266D01*
X102120785Y-122358167D01*
X101972497Y-122136238D01*
X101783762Y-121947503D01*
X101561833Y-121799215D01*
X101315239Y-121697072D01*
X101053456Y-121645000D01*
X100786544Y-121645000D01*
X100524761Y-121697072D01*
X100278167Y-121799215D01*
X100056238Y-121947503D01*
X99867503Y-122136238D01*
X99719215Y-122358167D01*
X99617072Y-122604761D01*
X99565000Y-122866544D01*
X90389967Y-122866544D01*
X90390612Y-122860000D01*
X90368215Y-122632600D01*
X90301885Y-122413940D01*
X90194171Y-122212421D01*
X90049212Y-122035788D01*
X89872579Y-121890829D01*
X89671060Y-121783115D01*
X89452400Y-121716785D01*
X89281979Y-121700000D01*
X88718021Y-121700000D01*
X88547600Y-121716785D01*
X88328940Y-121783115D01*
X88127421Y-121890829D01*
X87950788Y-122035788D01*
X87805829Y-122212421D01*
X87698115Y-122413940D01*
X87631785Y-122632600D01*
X87609388Y-122860000D01*
X84453203Y-122860000D01*
X84380796Y-122617391D01*
X84046102Y-121984397D01*
X84027868Y-121957106D01*
X83558686Y-121620919D01*
X81179605Y-124000000D01*
X80820395Y-124000000D01*
X78441314Y-121620919D01*
X78160000Y-121822491D01*
X78160000Y-121441314D01*
X78620919Y-121441314D01*
X81000000Y-123820395D01*
X83379081Y-121441314D01*
X83116603Y-121075000D01*
X110511928Y-121075000D01*
X110511928Y-122525000D01*
X110528992Y-122698254D01*
X110579528Y-122864850D01*
X110661595Y-123018386D01*
X110772038Y-123152962D01*
X110906614Y-123263405D01*
X111060150Y-123345472D01*
X111226746Y-123396008D01*
X111400000Y-123413072D01*
X112600000Y-123413072D01*
X112773254Y-123396008D01*
X112939850Y-123345472D01*
X113093386Y-123263405D01*
X113227962Y-123152962D01*
X113338405Y-123018386D01*
X113392777Y-122916663D01*
X113444866Y-122980134D01*
X113670987Y-123165706D01*
X113928967Y-123303599D01*
X114208890Y-123388513D01*
X114500000Y-123417185D01*
X114791111Y-123388513D01*
X115071034Y-123303599D01*
X115329014Y-123165706D01*
X115555134Y-122980134D01*
X115740706Y-122754014D01*
X115750000Y-122736626D01*
X115759294Y-122754014D01*
X115944866Y-122980134D01*
X116170987Y-123165706D01*
X116428967Y-123303599D01*
X116708890Y-123388513D01*
X117000000Y-123417185D01*
X117291111Y-123388513D01*
X117571034Y-123303599D01*
X117829014Y-123165706D01*
X118055134Y-122980134D01*
X118240706Y-122754014D01*
X118378599Y-122496033D01*
X118463513Y-122216110D01*
X118485000Y-121997949D01*
X118485000Y-121602050D01*
X118469169Y-121441314D01*
X121620919Y-121441314D01*
X124000000Y-123820395D01*
X126379081Y-121441314D01*
X126042894Y-120972132D01*
X125412932Y-120631763D01*
X124728673Y-120420834D01*
X124016411Y-120347450D01*
X123303518Y-120414431D01*
X122617391Y-120619204D01*
X121984397Y-120953898D01*
X121957106Y-120972132D01*
X121620919Y-121441314D01*
X118469169Y-121441314D01*
X118463513Y-121383889D01*
X118378599Y-121103966D01*
X118240706Y-120845986D01*
X118055134Y-120619866D01*
X117829013Y-120434294D01*
X117571033Y-120296401D01*
X117291110Y-120211487D01*
X117000000Y-120182815D01*
X116708889Y-120211487D01*
X116428966Y-120296401D01*
X116170986Y-120434294D01*
X115944866Y-120619866D01*
X115759294Y-120845987D01*
X115750000Y-120863374D01*
X115740706Y-120845986D01*
X115555134Y-120619866D01*
X115329013Y-120434294D01*
X115071033Y-120296401D01*
X114791110Y-120211487D01*
X114500000Y-120182815D01*
X114208889Y-120211487D01*
X113928966Y-120296401D01*
X113670986Y-120434294D01*
X113444866Y-120619866D01*
X113392777Y-120683337D01*
X113338405Y-120581614D01*
X113227962Y-120447038D01*
X113093386Y-120336595D01*
X112939850Y-120254528D01*
X112773254Y-120203992D01*
X112600000Y-120186928D01*
X111400000Y-120186928D01*
X111226746Y-120203992D01*
X111060150Y-120254528D01*
X110906614Y-120336595D01*
X110772038Y-120447038D01*
X110661595Y-120581614D01*
X110579528Y-120735150D01*
X110528992Y-120901746D01*
X110511928Y-121075000D01*
X83116603Y-121075000D01*
X83042894Y-120972132D01*
X82412932Y-120631763D01*
X81728673Y-120420834D01*
X81016411Y-120347450D01*
X80303518Y-120414431D01*
X79617391Y-120619204D01*
X78984397Y-120953898D01*
X78957106Y-120972132D01*
X78620919Y-121441314D01*
X78160000Y-121441314D01*
X78160000Y-117514788D01*
X78228320Y-117679727D01*
X78385363Y-117914759D01*
X78585241Y-118114637D01*
X78820273Y-118271680D01*
X79081426Y-118379853D01*
X79358665Y-118435000D01*
X79641335Y-118435000D01*
X79918574Y-118379853D01*
X80179727Y-118271680D01*
X80414759Y-118114637D01*
X80614637Y-117914759D01*
X80750000Y-117712173D01*
X80885363Y-117914759D01*
X81085241Y-118114637D01*
X81320273Y-118271680D01*
X81581426Y-118379853D01*
X81858665Y-118435000D01*
X82141335Y-118435000D01*
X82418574Y-118379853D01*
X82679727Y-118271680D01*
X82914759Y-118114637D01*
X82959396Y-118070000D01*
X86909388Y-118070000D01*
X86931785Y-118297400D01*
X86998115Y-118516060D01*
X87099105Y-118705000D01*
X86998115Y-118893940D01*
X86931785Y-119112600D01*
X86909388Y-119340000D01*
X86931785Y-119567400D01*
X86998115Y-119786060D01*
X87105829Y-119987579D01*
X87250788Y-120164212D01*
X87427421Y-120309171D01*
X87628940Y-120416885D01*
X87847600Y-120483215D01*
X88018021Y-120500000D01*
X88581979Y-120500000D01*
X88752400Y-120483215D01*
X88971060Y-120416885D01*
X89172579Y-120309171D01*
X89349212Y-120164212D01*
X89494171Y-119987579D01*
X89601885Y-119786060D01*
X89668215Y-119567400D01*
X89690612Y-119340000D01*
X89668215Y-119112600D01*
X89601885Y-118893940D01*
X89500895Y-118705000D01*
X89601885Y-118516060D01*
X89668215Y-118297400D01*
X89673999Y-118238665D01*
X94565000Y-118238665D01*
X94565000Y-118521335D01*
X94620147Y-118798574D01*
X94728320Y-119059727D01*
X94885363Y-119294759D01*
X95085241Y-119494637D01*
X95320273Y-119651680D01*
X95581426Y-119759853D01*
X95858665Y-119815000D01*
X96141335Y-119815000D01*
X96418574Y-119759853D01*
X96679727Y-119651680D01*
X96914759Y-119494637D01*
X97114637Y-119294759D01*
X97271680Y-119059727D01*
X97379853Y-118798574D01*
X97435000Y-118521335D01*
X97435000Y-118238665D01*
X97379853Y-117961426D01*
X97271680Y-117700273D01*
X97114637Y-117465241D01*
X96914759Y-117265363D01*
X96679727Y-117108320D01*
X96418574Y-117000147D01*
X96141335Y-116945000D01*
X95858665Y-116945000D01*
X95581426Y-117000147D01*
X95320273Y-117108320D01*
X95085241Y-117265363D01*
X94885363Y-117465241D01*
X94728320Y-117700273D01*
X94620147Y-117961426D01*
X94565000Y-118238665D01*
X89673999Y-118238665D01*
X89690612Y-118070000D01*
X89668215Y-117842600D01*
X89604907Y-117633902D01*
X89639502Y-117569180D01*
X89675812Y-117449482D01*
X89688072Y-117325000D01*
X89688072Y-116275000D01*
X89675812Y-116150518D01*
X89639502Y-116030820D01*
X89580537Y-115920506D01*
X89501185Y-115823815D01*
X89404494Y-115744463D01*
X89294180Y-115685498D01*
X89174482Y-115649188D01*
X89050000Y-115636928D01*
X87550000Y-115636928D01*
X87425518Y-115649188D01*
X87305820Y-115685498D01*
X87195506Y-115744463D01*
X87098815Y-115823815D01*
X87019463Y-115920506D01*
X86960498Y-116030820D01*
X86924188Y-116150518D01*
X86911928Y-116275000D01*
X86911928Y-117325000D01*
X86924188Y-117449482D01*
X86960498Y-117569180D01*
X86995093Y-117633902D01*
X86931785Y-117842600D01*
X86909388Y-118070000D01*
X82959396Y-118070000D01*
X83114637Y-117914759D01*
X83271680Y-117679727D01*
X83379853Y-117418574D01*
X83435000Y-117141335D01*
X83435000Y-116858665D01*
X83379853Y-116581426D01*
X83271680Y-116320273D01*
X83114637Y-116085241D01*
X82914759Y-115885363D01*
X82679727Y-115728320D01*
X82418574Y-115620147D01*
X82141335Y-115565000D01*
X81858665Y-115565000D01*
X81581426Y-115620147D01*
X81320273Y-115728320D01*
X81085241Y-115885363D01*
X80885363Y-116085241D01*
X80750000Y-116287827D01*
X80614637Y-116085241D01*
X80414759Y-115885363D01*
X80179727Y-115728320D01*
X79918574Y-115620147D01*
X79641335Y-115565000D01*
X79358665Y-115565000D01*
X79081426Y-115620147D01*
X78820273Y-115728320D01*
X78585241Y-115885363D01*
X78385363Y-116085241D01*
X78228320Y-116320273D01*
X78160000Y-116485212D01*
X78160000Y-113514788D01*
X78228320Y-113679727D01*
X78385363Y-113914759D01*
X78585241Y-114114637D01*
X78820273Y-114271680D01*
X79081426Y-114379853D01*
X79358665Y-114435000D01*
X79641335Y-114435000D01*
X79918574Y-114379853D01*
X80179727Y-114271680D01*
X80414759Y-114114637D01*
X80614637Y-113914759D01*
X80750000Y-113712173D01*
X80885363Y-113914759D01*
X81085241Y-114114637D01*
X81320273Y-114271680D01*
X81581426Y-114379853D01*
X81858665Y-114435000D01*
X82141335Y-114435000D01*
X82418574Y-114379853D01*
X82679727Y-114271680D01*
X82914759Y-114114637D01*
X83114637Y-113914759D01*
X83271680Y-113679727D01*
X83379853Y-113418574D01*
X83390054Y-113367290D01*
X83420147Y-113518574D01*
X83528320Y-113779727D01*
X83685363Y-114014759D01*
X83885241Y-114214637D01*
X84120273Y-114371680D01*
X84381426Y-114479853D01*
X84658665Y-114535000D01*
X84941335Y-114535000D01*
X85218574Y-114479853D01*
X85479727Y-114371680D01*
X85714759Y-114214637D01*
X85914637Y-114014759D01*
X86071680Y-113779727D01*
X86179853Y-113518574D01*
X86235000Y-113241335D01*
X86235000Y-112958665D01*
X90985000Y-112958665D01*
X90985000Y-113241335D01*
X91040147Y-113518574D01*
X91148320Y-113779727D01*
X91305363Y-114014759D01*
X91505241Y-114214637D01*
X91740273Y-114371680D01*
X92001426Y-114479853D01*
X92278665Y-114535000D01*
X92561335Y-114535000D01*
X92838574Y-114479853D01*
X92889726Y-114458665D01*
X94265000Y-114458665D01*
X94265000Y-114741335D01*
X94320147Y-115018574D01*
X94428320Y-115279727D01*
X94585363Y-115514759D01*
X94785241Y-115714637D01*
X95020273Y-115871680D01*
X95281426Y-115979853D01*
X95558665Y-116035000D01*
X95841335Y-116035000D01*
X96118574Y-115979853D01*
X96379727Y-115871680D01*
X96614759Y-115714637D01*
X96814637Y-115514759D01*
X96950000Y-115312173D01*
X97085363Y-115514759D01*
X97285241Y-115714637D01*
X97520273Y-115871680D01*
X97781426Y-115979853D01*
X98058665Y-116035000D01*
X98341335Y-116035000D01*
X98618574Y-115979853D01*
X98879727Y-115871680D01*
X99114759Y-115714637D01*
X99314637Y-115514759D01*
X99471680Y-115279727D01*
X99579853Y-115018574D01*
X99635000Y-114741335D01*
X99635000Y-114458665D01*
X99579853Y-114181426D01*
X99471680Y-113920273D01*
X99314637Y-113685241D01*
X99114759Y-113485363D01*
X98879727Y-113328320D01*
X98618574Y-113220147D01*
X98341335Y-113165000D01*
X98058665Y-113165000D01*
X97781426Y-113220147D01*
X97520273Y-113328320D01*
X97285241Y-113485363D01*
X97085363Y-113685241D01*
X96950000Y-113887827D01*
X96814637Y-113685241D01*
X96614759Y-113485363D01*
X96379727Y-113328320D01*
X96118574Y-113220147D01*
X95841335Y-113165000D01*
X95558665Y-113165000D01*
X95281426Y-113220147D01*
X95020273Y-113328320D01*
X94785241Y-113485363D01*
X94585363Y-113685241D01*
X94428320Y-113920273D01*
X94320147Y-114181426D01*
X94265000Y-114458665D01*
X92889726Y-114458665D01*
X93099727Y-114371680D01*
X93334759Y-114214637D01*
X93534637Y-114014759D01*
X93691680Y-113779727D01*
X93799853Y-113518574D01*
X93855000Y-113241335D01*
X93855000Y-112958665D01*
X93833385Y-112850000D01*
X106111928Y-112850000D01*
X106111928Y-114350000D01*
X106128992Y-114523254D01*
X106179528Y-114689850D01*
X106261595Y-114843386D01*
X106372038Y-114977962D01*
X106506614Y-115088405D01*
X106660150Y-115170472D01*
X106826746Y-115221008D01*
X107000000Y-115238072D01*
X108200000Y-115238072D01*
X108373254Y-115221008D01*
X108539850Y-115170472D01*
X108693386Y-115088405D01*
X108827962Y-114977962D01*
X108938405Y-114843386D01*
X108992777Y-114741663D01*
X109044866Y-114805134D01*
X109270987Y-114990706D01*
X109528967Y-115128599D01*
X109808890Y-115213513D01*
X110100000Y-115242185D01*
X110391111Y-115213513D01*
X110671034Y-115128599D01*
X110929014Y-114990706D01*
X111155134Y-114805134D01*
X111340706Y-114579014D01*
X111478599Y-114321033D01*
X111563513Y-114041110D01*
X111585000Y-113822949D01*
X111585000Y-113377050D01*
X111563513Y-113158889D01*
X111478599Y-112878966D01*
X111467748Y-112858665D01*
X121565000Y-112858665D01*
X121565000Y-113141335D01*
X121620147Y-113418574D01*
X121728320Y-113679727D01*
X121885363Y-113914759D01*
X121970604Y-114000000D01*
X121885363Y-114085241D01*
X121728320Y-114320273D01*
X121620147Y-114581426D01*
X121565000Y-114858665D01*
X121565000Y-115141335D01*
X121620147Y-115418574D01*
X121728320Y-115679727D01*
X121885363Y-115914759D01*
X122085241Y-116114637D01*
X122320273Y-116271680D01*
X122581426Y-116379853D01*
X122858665Y-116435000D01*
X123141335Y-116435000D01*
X123418574Y-116379853D01*
X123679727Y-116271680D01*
X123914759Y-116114637D01*
X124114637Y-115914759D01*
X124271680Y-115679727D01*
X124379853Y-115418574D01*
X124435000Y-115141335D01*
X124435000Y-114858665D01*
X124379853Y-114581426D01*
X124271680Y-114320273D01*
X124114637Y-114085241D01*
X124029396Y-114000000D01*
X124114637Y-113914759D01*
X124271680Y-113679727D01*
X124379853Y-113418574D01*
X124435000Y-113141335D01*
X124435000Y-112858665D01*
X124379853Y-112581426D01*
X124271680Y-112320273D01*
X124114637Y-112085241D01*
X123914759Y-111885363D01*
X123679727Y-111728320D01*
X123418574Y-111620147D01*
X123141335Y-111565000D01*
X122858665Y-111565000D01*
X122581426Y-111620147D01*
X122320273Y-111728320D01*
X122085241Y-111885363D01*
X121885363Y-112085241D01*
X121728320Y-112320273D01*
X121620147Y-112581426D01*
X121565000Y-112858665D01*
X111467748Y-112858665D01*
X111340706Y-112620986D01*
X111155134Y-112394866D01*
X110929013Y-112209294D01*
X110671033Y-112071401D01*
X110391110Y-111986487D01*
X110100000Y-111957815D01*
X109808889Y-111986487D01*
X109528966Y-112071401D01*
X109270986Y-112209294D01*
X109044866Y-112394866D01*
X108992777Y-112458337D01*
X108938405Y-112356614D01*
X108827962Y-112222038D01*
X108693386Y-112111595D01*
X108539850Y-112029528D01*
X108373254Y-111978992D01*
X108200000Y-111961928D01*
X107000000Y-111961928D01*
X106826746Y-111978992D01*
X106660150Y-112029528D01*
X106506614Y-112111595D01*
X106372038Y-112222038D01*
X106261595Y-112356614D01*
X106179528Y-112510150D01*
X106128992Y-112676746D01*
X106111928Y-112850000D01*
X93833385Y-112850000D01*
X93799853Y-112681426D01*
X93691680Y-112420273D01*
X93534637Y-112185241D01*
X93334759Y-111985363D01*
X93099727Y-111828320D01*
X92838574Y-111720147D01*
X92561335Y-111665000D01*
X92278665Y-111665000D01*
X92001426Y-111720147D01*
X91740273Y-111828320D01*
X91505241Y-111985363D01*
X91305363Y-112185241D01*
X91148320Y-112420273D01*
X91040147Y-112681426D01*
X90985000Y-112958665D01*
X86235000Y-112958665D01*
X86179853Y-112681426D01*
X86071680Y-112420273D01*
X85914637Y-112185241D01*
X85714759Y-111985363D01*
X85479727Y-111828320D01*
X85218574Y-111720147D01*
X84941335Y-111665000D01*
X84658665Y-111665000D01*
X84381426Y-111720147D01*
X84120273Y-111828320D01*
X83885241Y-111985363D01*
X83685363Y-112185241D01*
X83528320Y-112420273D01*
X83420147Y-112681426D01*
X83409946Y-112732710D01*
X83379853Y-112581426D01*
X83271680Y-112320273D01*
X83114637Y-112085241D01*
X82914759Y-111885363D01*
X82679727Y-111728320D01*
X82418574Y-111620147D01*
X82141335Y-111565000D01*
X81858665Y-111565000D01*
X81581426Y-111620147D01*
X81320273Y-111728320D01*
X81085241Y-111885363D01*
X80885363Y-112085241D01*
X80750000Y-112287827D01*
X80614637Y-112085241D01*
X80414759Y-111885363D01*
X80179727Y-111728320D01*
X79918574Y-111620147D01*
X79641335Y-111565000D01*
X79358665Y-111565000D01*
X79081426Y-111620147D01*
X78820273Y-111728320D01*
X78585241Y-111885363D01*
X78385363Y-112085241D01*
X78228320Y-112320273D01*
X78160000Y-112485212D01*
X78160000Y-110998061D01*
X100265000Y-110998061D01*
X100265000Y-111201939D01*
X100304774Y-111401898D01*
X100382795Y-111590256D01*
X100496063Y-111759774D01*
X100640226Y-111903937D01*
X100809744Y-112017205D01*
X100998102Y-112095226D01*
X101198061Y-112135000D01*
X101401939Y-112135000D01*
X101601898Y-112095226D01*
X101790256Y-112017205D01*
X101959774Y-111903937D01*
X102103937Y-111759774D01*
X102217205Y-111590256D01*
X102295226Y-111401898D01*
X102327428Y-111240004D01*
X102573387Y-110994046D01*
X102752904Y-110958338D01*
X102941262Y-110880317D01*
X103110780Y-110767049D01*
X103254943Y-110622886D01*
X103368211Y-110453368D01*
X103446232Y-110265010D01*
X103486006Y-110065051D01*
X103486006Y-109861173D01*
X103485508Y-109858665D01*
X114565000Y-109858665D01*
X114565000Y-110141335D01*
X114620147Y-110418574D01*
X114728320Y-110679727D01*
X114885363Y-110914759D01*
X115085241Y-111114637D01*
X115320273Y-111271680D01*
X115581426Y-111379853D01*
X115858665Y-111435000D01*
X116141335Y-111435000D01*
X116418574Y-111379853D01*
X116679727Y-111271680D01*
X116914759Y-111114637D01*
X117114637Y-110914759D01*
X117250000Y-110712173D01*
X117385363Y-110914759D01*
X117585241Y-111114637D01*
X117820273Y-111271680D01*
X118081426Y-111379853D01*
X118358665Y-111435000D01*
X118641335Y-111435000D01*
X118918574Y-111379853D01*
X119179727Y-111271680D01*
X119414759Y-111114637D01*
X119614637Y-110914759D01*
X119771680Y-110679727D01*
X119879853Y-110418574D01*
X119935000Y-110141335D01*
X119935000Y-109858665D01*
X119879853Y-109581426D01*
X119771680Y-109320273D01*
X119614637Y-109085241D01*
X119414759Y-108885363D01*
X119179727Y-108728320D01*
X118918574Y-108620147D01*
X118641335Y-108565000D01*
X118358665Y-108565000D01*
X118081426Y-108620147D01*
X117820273Y-108728320D01*
X117585241Y-108885363D01*
X117385363Y-109085241D01*
X117250000Y-109287827D01*
X117114637Y-109085241D01*
X116914759Y-108885363D01*
X116679727Y-108728320D01*
X116418574Y-108620147D01*
X116141335Y-108565000D01*
X115858665Y-108565000D01*
X115581426Y-108620147D01*
X115320273Y-108728320D01*
X115085241Y-108885363D01*
X114885363Y-109085241D01*
X114728320Y-109320273D01*
X114620147Y-109581426D01*
X114565000Y-109858665D01*
X103485508Y-109858665D01*
X103446232Y-109661214D01*
X103368211Y-109472856D01*
X103254943Y-109303338D01*
X103110780Y-109159175D01*
X102941262Y-109045907D01*
X102752904Y-108967886D01*
X102552945Y-108928112D01*
X102349067Y-108928112D01*
X102149108Y-108967886D01*
X101960750Y-109045907D01*
X101791232Y-109159175D01*
X101647069Y-109303338D01*
X101533801Y-109472856D01*
X101455780Y-109661214D01*
X101427083Y-109805484D01*
X101159996Y-110072572D01*
X100998102Y-110104774D01*
X100809744Y-110182795D01*
X100640226Y-110296063D01*
X100496063Y-110440226D01*
X100382795Y-110609744D01*
X100304774Y-110798102D01*
X100265000Y-110998061D01*
X78160000Y-110998061D01*
X78160000Y-108558686D01*
X78620919Y-108558686D01*
X78957106Y-109027868D01*
X79587068Y-109368237D01*
X80271327Y-109579166D01*
X80983589Y-109652550D01*
X81696482Y-109585569D01*
X82382609Y-109380796D01*
X83015603Y-109046102D01*
X83042894Y-109027868D01*
X83379081Y-108558686D01*
X81000000Y-106179605D01*
X78620919Y-108558686D01*
X78160000Y-108558686D01*
X78160000Y-108177509D01*
X78441314Y-108379081D01*
X80820395Y-106000000D01*
X81179605Y-106000000D01*
X83558686Y-108379081D01*
X84027868Y-108042894D01*
X84064551Y-107975000D01*
X86911928Y-107975000D01*
X86924188Y-108099482D01*
X86960498Y-108219180D01*
X87019463Y-108329494D01*
X87098815Y-108426185D01*
X87195506Y-108505537D01*
X87305820Y-108564502D01*
X87425518Y-108600812D01*
X87550000Y-108613072D01*
X88114250Y-108610000D01*
X88273000Y-108451250D01*
X88273000Y-107127000D01*
X87073750Y-107127000D01*
X86915000Y-107285750D01*
X86911928Y-107975000D01*
X84064551Y-107975000D01*
X84368237Y-107412932D01*
X84579166Y-106728673D01*
X84651665Y-106025000D01*
X86911928Y-106025000D01*
X86915000Y-106714250D01*
X87073750Y-106873000D01*
X88273000Y-106873000D01*
X88273000Y-105548750D01*
X88527000Y-105548750D01*
X88527000Y-106873000D01*
X88547000Y-106873000D01*
X88547000Y-107127000D01*
X88527000Y-107127000D01*
X88527000Y-108451250D01*
X88685750Y-108610000D01*
X89250000Y-108613072D01*
X89374482Y-108600812D01*
X89494180Y-108564502D01*
X89604494Y-108505537D01*
X89701185Y-108426185D01*
X89780537Y-108329494D01*
X89839502Y-108219180D01*
X89850055Y-108184392D01*
X90070987Y-108365706D01*
X90328967Y-108503599D01*
X90608890Y-108588513D01*
X90900000Y-108617185D01*
X91191111Y-108588513D01*
X91471034Y-108503599D01*
X91729014Y-108365706D01*
X91955134Y-108180134D01*
X92140706Y-107954014D01*
X92150000Y-107936626D01*
X92159294Y-107954014D01*
X92344866Y-108180134D01*
X92570987Y-108365706D01*
X92828967Y-108503599D01*
X93108890Y-108588513D01*
X93400000Y-108617185D01*
X93691111Y-108588513D01*
X93971034Y-108503599D01*
X94229014Y-108365706D01*
X94455134Y-108180134D01*
X94640706Y-107954014D01*
X94650000Y-107936626D01*
X94659294Y-107954014D01*
X94844866Y-108180134D01*
X95070987Y-108365706D01*
X95328967Y-108503599D01*
X95608890Y-108588513D01*
X95900000Y-108617185D01*
X96191111Y-108588513D01*
X96289437Y-108558686D01*
X121620919Y-108558686D01*
X121957106Y-109027868D01*
X122587068Y-109368237D01*
X123271327Y-109579166D01*
X123983589Y-109652550D01*
X124696482Y-109585569D01*
X125382609Y-109380796D01*
X126015603Y-109046102D01*
X126042894Y-109027868D01*
X126379081Y-108558686D01*
X124000000Y-106179605D01*
X121620919Y-108558686D01*
X96289437Y-108558686D01*
X96471034Y-108503599D01*
X96729014Y-108365706D01*
X96955134Y-108180134D01*
X97140706Y-107954014D01*
X97278599Y-107696033D01*
X97363513Y-107416110D01*
X97385000Y-107197949D01*
X97385000Y-106802050D01*
X97381503Y-106766544D01*
X101645000Y-106766544D01*
X101645000Y-107033456D01*
X101697072Y-107295239D01*
X101799215Y-107541833D01*
X101947503Y-107763762D01*
X102136238Y-107952497D01*
X102358167Y-108100785D01*
X102604761Y-108202928D01*
X102866544Y-108255000D01*
X103133456Y-108255000D01*
X103395239Y-108202928D01*
X103641833Y-108100785D01*
X103863762Y-107952497D01*
X104052497Y-107763762D01*
X104200785Y-107541833D01*
X104270000Y-107374734D01*
X104339215Y-107541833D01*
X104487503Y-107763762D01*
X104676238Y-107952497D01*
X104898167Y-108100785D01*
X105144761Y-108202928D01*
X105406544Y-108255000D01*
X105673456Y-108255000D01*
X105935239Y-108202928D01*
X106181833Y-108100785D01*
X106403762Y-107952497D01*
X106592497Y-107763762D01*
X106740785Y-107541833D01*
X106810000Y-107374734D01*
X106879215Y-107541833D01*
X107027503Y-107763762D01*
X107216238Y-107952497D01*
X107438167Y-108100785D01*
X107684761Y-108202928D01*
X107946544Y-108255000D01*
X108213456Y-108255000D01*
X108475239Y-108202928D01*
X108721833Y-108100785D01*
X108943762Y-107952497D01*
X109132497Y-107763762D01*
X109280785Y-107541833D01*
X109382928Y-107295239D01*
X109435000Y-107033456D01*
X109435000Y-106992702D01*
X110186903Y-106992702D01*
X110258486Y-107236671D01*
X110513996Y-107357571D01*
X110788184Y-107426300D01*
X111070512Y-107440217D01*
X111350130Y-107398787D01*
X111616292Y-107303603D01*
X111741514Y-107236671D01*
X111813097Y-106992702D01*
X111000000Y-106179605D01*
X110186903Y-106992702D01*
X109435000Y-106992702D01*
X109435000Y-106766544D01*
X109382928Y-106504761D01*
X109280785Y-106258167D01*
X109155399Y-106070512D01*
X109559783Y-106070512D01*
X109601213Y-106350130D01*
X109696397Y-106616292D01*
X109763329Y-106741514D01*
X110007298Y-106813097D01*
X110820395Y-106000000D01*
X111179605Y-106000000D01*
X111992702Y-106813097D01*
X112236671Y-106741514D01*
X112357571Y-106486004D01*
X112426300Y-106211816D01*
X112440217Y-105929488D01*
X112429724Y-105858665D01*
X117185000Y-105858665D01*
X117185000Y-106141335D01*
X117240147Y-106418574D01*
X117348320Y-106679727D01*
X117505363Y-106914759D01*
X117705241Y-107114637D01*
X117940273Y-107271680D01*
X118201426Y-107379853D01*
X118478665Y-107435000D01*
X118761335Y-107435000D01*
X119038574Y-107379853D01*
X119299727Y-107271680D01*
X119534759Y-107114637D01*
X119734637Y-106914759D01*
X119891680Y-106679727D01*
X119999853Y-106418574D01*
X120055000Y-106141335D01*
X120055000Y-105983589D01*
X120347450Y-105983589D01*
X120414431Y-106696482D01*
X120619204Y-107382609D01*
X120953898Y-108015603D01*
X120972132Y-108042894D01*
X121441314Y-108379081D01*
X123820395Y-106000000D01*
X121441314Y-103620919D01*
X120972132Y-103957106D01*
X120631763Y-104587068D01*
X120420834Y-105271327D01*
X120347450Y-105983589D01*
X120055000Y-105983589D01*
X120055000Y-105858665D01*
X119999853Y-105581426D01*
X119891680Y-105320273D01*
X119734637Y-105085241D01*
X119534759Y-104885363D01*
X119299727Y-104728320D01*
X119038574Y-104620147D01*
X118761335Y-104565000D01*
X118478665Y-104565000D01*
X118201426Y-104620147D01*
X117940273Y-104728320D01*
X117705241Y-104885363D01*
X117505363Y-105085241D01*
X117348320Y-105320273D01*
X117240147Y-105581426D01*
X117185000Y-105858665D01*
X112429724Y-105858665D01*
X112398787Y-105649870D01*
X112303603Y-105383708D01*
X112236671Y-105258486D01*
X111992702Y-105186903D01*
X111179605Y-106000000D01*
X110820395Y-106000000D01*
X110007298Y-105186903D01*
X109763329Y-105258486D01*
X109642429Y-105513996D01*
X109573700Y-105788184D01*
X109559783Y-106070512D01*
X109155399Y-106070512D01*
X109132497Y-106036238D01*
X108943762Y-105847503D01*
X108721833Y-105699215D01*
X108475239Y-105597072D01*
X108213456Y-105545000D01*
X107946544Y-105545000D01*
X107684761Y-105597072D01*
X107438167Y-105699215D01*
X107216238Y-105847503D01*
X107027503Y-106036238D01*
X106879215Y-106258167D01*
X106810000Y-106425266D01*
X106740785Y-106258167D01*
X106592497Y-106036238D01*
X106403762Y-105847503D01*
X106181833Y-105699215D01*
X105935239Y-105597072D01*
X105673456Y-105545000D01*
X105406544Y-105545000D01*
X105144761Y-105597072D01*
X104898167Y-105699215D01*
X104676238Y-105847503D01*
X104487503Y-106036238D01*
X104339215Y-106258167D01*
X104270000Y-106425266D01*
X104200785Y-106258167D01*
X104052497Y-106036238D01*
X103863762Y-105847503D01*
X103641833Y-105699215D01*
X103395239Y-105597072D01*
X103133456Y-105545000D01*
X102866544Y-105545000D01*
X102604761Y-105597072D01*
X102358167Y-105699215D01*
X102136238Y-105847503D01*
X101947503Y-106036238D01*
X101799215Y-106258167D01*
X101697072Y-106504761D01*
X101645000Y-106766544D01*
X97381503Y-106766544D01*
X97363513Y-106583889D01*
X97278599Y-106303966D01*
X97140706Y-106045986D01*
X96955134Y-105819866D01*
X96729013Y-105634294D01*
X96471033Y-105496401D01*
X96191110Y-105411487D01*
X95900000Y-105382815D01*
X95608889Y-105411487D01*
X95328966Y-105496401D01*
X95070986Y-105634294D01*
X94844866Y-105819866D01*
X94659294Y-106045987D01*
X94650000Y-106063374D01*
X94640706Y-106045986D01*
X94455134Y-105819866D01*
X94229013Y-105634294D01*
X93971033Y-105496401D01*
X93691110Y-105411487D01*
X93400000Y-105382815D01*
X93108889Y-105411487D01*
X92828966Y-105496401D01*
X92570986Y-105634294D01*
X92344866Y-105819866D01*
X92159294Y-106045987D01*
X92150000Y-106063374D01*
X92140706Y-106045986D01*
X91955134Y-105819866D01*
X91729013Y-105634294D01*
X91471033Y-105496401D01*
X91191110Y-105411487D01*
X90900000Y-105382815D01*
X90608889Y-105411487D01*
X90328966Y-105496401D01*
X90070986Y-105634294D01*
X89850055Y-105815608D01*
X89839502Y-105780820D01*
X89780537Y-105670506D01*
X89701185Y-105573815D01*
X89604494Y-105494463D01*
X89494180Y-105435498D01*
X89374482Y-105399188D01*
X89250000Y-105386928D01*
X88685750Y-105390000D01*
X88527000Y-105548750D01*
X88273000Y-105548750D01*
X88114250Y-105390000D01*
X87550000Y-105386928D01*
X87425518Y-105399188D01*
X87305820Y-105435498D01*
X87195506Y-105494463D01*
X87098815Y-105573815D01*
X87019463Y-105670506D01*
X86960498Y-105780820D01*
X86924188Y-105900518D01*
X86911928Y-106025000D01*
X84651665Y-106025000D01*
X84652550Y-106016411D01*
X84585569Y-105303518D01*
X84497163Y-105007298D01*
X110186903Y-105007298D01*
X111000000Y-105820395D01*
X111813097Y-105007298D01*
X111741514Y-104763329D01*
X111486004Y-104642429D01*
X111211816Y-104573700D01*
X110929488Y-104559783D01*
X110649870Y-104601213D01*
X110383708Y-104696397D01*
X110258486Y-104763329D01*
X110186903Y-105007298D01*
X84497163Y-105007298D01*
X84380796Y-104617391D01*
X84046102Y-103984397D01*
X84027868Y-103957106D01*
X83558686Y-103620919D01*
X81179605Y-106000000D01*
X80820395Y-106000000D01*
X78441314Y-103620919D01*
X78160000Y-103822491D01*
X78160000Y-103160000D01*
X78822491Y-103160000D01*
X78620919Y-103441314D01*
M02*
