G04 #@! TF.GenerationSoftware,KiCad,Pcbnew,(5.1.5)-3*
G04 #@! TF.CreationDate,2020-07-01T02:10:36+02:00*
G04 #@! TF.ProjectId,GermaniumFuzz,4765726d-616e-4697-956d-46757a7a2e6b,rev?*
G04 #@! TF.SameCoordinates,Original*
G04 #@! TF.FileFunction,Legend,Top*
G04 #@! TF.FilePolarity,Positive*
%FSLAX46Y46*%
G04 Gerber Fmt 4.6, Leading zero omitted, Abs format (unit mm)*
G04 Created by KiCad (PCBNEW (5.1.5)-3) date 2020-07-01 02:10:36*
%MOMM*%
%LPD*%
G04 APERTURE LIST*
%ADD10C,0.150000*%
%ADD11C,0.203200*%
%ADD12C,0.120000*%
G04 APERTURE END LIST*
D10*
X105080952Y-126828571D02*
X104319047Y-126828571D01*
X104700000Y-126447619D02*
X104700000Y-127209523D01*
X103080952Y-126828571D02*
X102319047Y-126828571D01*
X104319047Y-103471428D02*
X105080952Y-103471428D01*
X104700000Y-103852380D02*
X104700000Y-103090476D01*
X106319047Y-103471428D02*
X107080952Y-103471428D01*
D11*
X114219047Y-113325371D02*
X114552380Y-113325371D01*
X114695238Y-113849180D02*
X114219047Y-113849180D01*
X114219047Y-112849180D01*
X114695238Y-112849180D01*
X115266666Y-113849180D02*
X115171428Y-113801561D01*
X115123809Y-113706323D01*
X115123809Y-112849180D01*
X116028571Y-113801561D02*
X115933333Y-113849180D01*
X115742857Y-113849180D01*
X115647619Y-113801561D01*
X115600000Y-113706323D01*
X115600000Y-113325371D01*
X115647619Y-113230133D01*
X115742857Y-113182514D01*
X115933333Y-113182514D01*
X116028571Y-113230133D01*
X116076190Y-113325371D01*
X116076190Y-113420609D01*
X115600000Y-113515847D01*
X116933333Y-113801561D02*
X116838095Y-113849180D01*
X116647619Y-113849180D01*
X116552380Y-113801561D01*
X116504761Y-113753942D01*
X116457142Y-113658704D01*
X116457142Y-113372990D01*
X116504761Y-113277752D01*
X116552380Y-113230133D01*
X116647619Y-113182514D01*
X116838095Y-113182514D01*
X116933333Y-113230133D01*
X117219047Y-113182514D02*
X117600000Y-113182514D01*
X117361904Y-112849180D02*
X117361904Y-113706323D01*
X117409523Y-113801561D01*
X117504761Y-113849180D01*
X117600000Y-113849180D01*
X117933333Y-113849180D02*
X117933333Y-113182514D01*
X117933333Y-113372990D02*
X117980952Y-113277752D01*
X118028571Y-113230133D01*
X118123809Y-113182514D01*
X118219047Y-113182514D01*
X118695238Y-113849180D02*
X118600000Y-113801561D01*
X118552380Y-113753942D01*
X118504761Y-113658704D01*
X118504761Y-113372990D01*
X118552380Y-113277752D01*
X118600000Y-113230133D01*
X118695238Y-113182514D01*
X118838095Y-113182514D01*
X118933333Y-113230133D01*
X118980952Y-113277752D01*
X119028571Y-113372990D01*
X119028571Y-113658704D01*
X118980952Y-113753942D01*
X118933333Y-113801561D01*
X118838095Y-113849180D01*
X118695238Y-113849180D01*
X114338095Y-115504761D02*
X114480952Y-115552380D01*
X114719047Y-115552380D01*
X114814285Y-115504761D01*
X114861904Y-115457142D01*
X114909523Y-115361904D01*
X114909523Y-115266666D01*
X114861904Y-115171428D01*
X114814285Y-115123809D01*
X114719047Y-115076190D01*
X114528571Y-115028571D01*
X114433333Y-114980952D01*
X114385714Y-114933333D01*
X114338095Y-114838095D01*
X114338095Y-114742857D01*
X114385714Y-114647619D01*
X114433333Y-114600000D01*
X114528571Y-114552380D01*
X114766666Y-114552380D01*
X114909523Y-114600000D01*
X115338095Y-115552380D02*
X115338095Y-114885714D01*
X115338095Y-114980952D02*
X115385714Y-114933333D01*
X115480952Y-114885714D01*
X115623809Y-114885714D01*
X115719047Y-114933333D01*
X115766666Y-115028571D01*
X115766666Y-115552380D01*
X115766666Y-115028571D02*
X115814285Y-114933333D01*
X115909523Y-114885714D01*
X116052380Y-114885714D01*
X116147619Y-114933333D01*
X116195238Y-115028571D01*
X116195238Y-115552380D01*
X117100000Y-115552380D02*
X117100000Y-115028571D01*
X117052380Y-114933333D01*
X116957142Y-114885714D01*
X116766666Y-114885714D01*
X116671428Y-114933333D01*
X117100000Y-115504761D02*
X117004761Y-115552380D01*
X116766666Y-115552380D01*
X116671428Y-115504761D01*
X116623809Y-115409523D01*
X116623809Y-115314285D01*
X116671428Y-115219047D01*
X116766666Y-115171428D01*
X117004761Y-115171428D01*
X117100000Y-115123809D01*
X117528571Y-115504761D02*
X117623809Y-115552380D01*
X117814285Y-115552380D01*
X117909523Y-115504761D01*
X117957142Y-115409523D01*
X117957142Y-115361904D01*
X117909523Y-115266666D01*
X117814285Y-115219047D01*
X117671428Y-115219047D01*
X117576190Y-115171428D01*
X117528571Y-115076190D01*
X117528571Y-115028571D01*
X117576190Y-114933333D01*
X117671428Y-114885714D01*
X117814285Y-114885714D01*
X117909523Y-114933333D01*
X118385714Y-115552380D02*
X118385714Y-114552380D01*
X118814285Y-115552380D02*
X118814285Y-115028571D01*
X118766666Y-114933333D01*
X118671428Y-114885714D01*
X118528571Y-114885714D01*
X118433333Y-114933333D01*
X118385714Y-114980952D01*
X113909523Y-116731771D02*
X113576190Y-116731771D01*
X113576190Y-117255580D02*
X113576190Y-116255580D01*
X114052380Y-116255580D01*
X114861904Y-116588914D02*
X114861904Y-117255580D01*
X114433333Y-116588914D02*
X114433333Y-117112723D01*
X114480952Y-117207961D01*
X114576190Y-117255580D01*
X114719047Y-117255580D01*
X114814285Y-117207961D01*
X114861904Y-117160342D01*
X115242857Y-116588914D02*
X115766666Y-116588914D01*
X115242857Y-117255580D01*
X115766666Y-117255580D01*
X116052380Y-116588914D02*
X116576190Y-116588914D01*
X116052380Y-117255580D01*
X116576190Y-117255580D01*
X118242857Y-117255580D02*
X117671428Y-117255580D01*
X117957142Y-117255580D02*
X117957142Y-116255580D01*
X117861904Y-116398438D01*
X117766666Y-116493676D01*
X117671428Y-116541295D01*
X118671428Y-117160342D02*
X118719047Y-117207961D01*
X118671428Y-117255580D01*
X118623809Y-117207961D01*
X118671428Y-117160342D01*
X118671428Y-117255580D01*
X119338095Y-116255580D02*
X119433333Y-116255580D01*
X119528571Y-116303200D01*
X119576190Y-116350819D01*
X119623809Y-116446057D01*
X119671428Y-116636533D01*
X119671428Y-116874628D01*
X119623809Y-117065104D01*
X119576190Y-117160342D01*
X119528571Y-117207961D01*
X119433333Y-117255580D01*
X119338095Y-117255580D01*
X119242857Y-117207961D01*
X119195238Y-117160342D01*
X119147619Y-117065104D01*
X119100000Y-116874628D01*
X119100000Y-116636533D01*
X119147619Y-116446057D01*
X119195238Y-116350819D01*
X119242857Y-116303200D01*
X119338095Y-116255580D01*
D10*
X97804761Y-117652380D02*
X98138095Y-118652380D01*
X98471428Y-117652380D01*
X98995238Y-117652380D02*
X99185714Y-117652380D01*
X99280952Y-117700000D01*
X99376190Y-117795238D01*
X99423809Y-117985714D01*
X99423809Y-118319047D01*
X99376190Y-118509523D01*
X99280952Y-118604761D01*
X99185714Y-118652380D01*
X98995238Y-118652380D01*
X98900000Y-118604761D01*
X98804761Y-118509523D01*
X98757142Y-118319047D01*
X98757142Y-117985714D01*
X98804761Y-117795238D01*
X98900000Y-117700000D01*
X98995238Y-117652380D01*
X100328571Y-118652380D02*
X99852380Y-118652380D01*
X99852380Y-117652380D01*
X101376190Y-118366666D02*
X101852380Y-118366666D01*
X101280952Y-118652380D02*
X101614285Y-117652380D01*
X101947619Y-118652380D01*
X102757142Y-117652380D02*
X102280952Y-117652380D01*
X102233333Y-118128571D01*
X102280952Y-118080952D01*
X102376190Y-118033333D01*
X102614285Y-118033333D01*
X102709523Y-118080952D01*
X102757142Y-118128571D01*
X102804761Y-118223809D01*
X102804761Y-118461904D01*
X102757142Y-118557142D01*
X102709523Y-118604761D01*
X102614285Y-118652380D01*
X102376190Y-118652380D01*
X102280952Y-118604761D01*
X102233333Y-118557142D01*
X103423809Y-117652380D02*
X103519047Y-117652380D01*
X103614285Y-117700000D01*
X103661904Y-117747619D01*
X103709523Y-117842857D01*
X103757142Y-118033333D01*
X103757142Y-118271428D01*
X103709523Y-118461904D01*
X103661904Y-118557142D01*
X103614285Y-118604761D01*
X103519047Y-118652380D01*
X103423809Y-118652380D01*
X103328571Y-118604761D01*
X103280952Y-118557142D01*
X103233333Y-118461904D01*
X103185714Y-118271428D01*
X103185714Y-118033333D01*
X103233333Y-117842857D01*
X103280952Y-117747619D01*
X103328571Y-117700000D01*
X103423809Y-117652380D01*
X104376190Y-117652380D02*
X104471428Y-117652380D01*
X104566666Y-117700000D01*
X104614285Y-117747619D01*
X104661904Y-117842857D01*
X104709523Y-118033333D01*
X104709523Y-118271428D01*
X104661904Y-118461904D01*
X104614285Y-118557142D01*
X104566666Y-118604761D01*
X104471428Y-118652380D01*
X104376190Y-118652380D01*
X104280952Y-118604761D01*
X104233333Y-118557142D01*
X104185714Y-118461904D01*
X104138095Y-118271428D01*
X104138095Y-118033333D01*
X104185714Y-117842857D01*
X104233333Y-117747619D01*
X104280952Y-117700000D01*
X104376190Y-117652380D01*
X105138095Y-118652380D02*
X105138095Y-117652380D01*
X105709523Y-118652380D02*
X105280952Y-118080952D01*
X105709523Y-117652380D02*
X105138095Y-118223809D01*
X106947619Y-118652380D02*
X107138095Y-118652380D01*
X107233333Y-118604761D01*
X107280952Y-118557142D01*
X107376190Y-118414285D01*
X107423809Y-118223809D01*
X107423809Y-117842857D01*
X107376190Y-117747619D01*
X107328571Y-117700000D01*
X107233333Y-117652380D01*
X107042857Y-117652380D01*
X106947619Y-117700000D01*
X106900000Y-117747619D01*
X106852380Y-117842857D01*
X106852380Y-118080952D01*
X106900000Y-118176190D01*
X106947619Y-118223809D01*
X107042857Y-118271428D01*
X107233333Y-118271428D01*
X107328571Y-118223809D01*
X107376190Y-118176190D01*
X107423809Y-118080952D01*
X107709523Y-117652380D02*
X108042857Y-118652380D01*
X108376190Y-117652380D01*
X109661904Y-117652380D02*
X109852380Y-117652380D01*
X109947619Y-117700000D01*
X110042857Y-117795238D01*
X110090476Y-117985714D01*
X110090476Y-118319047D01*
X110042857Y-118509523D01*
X109947619Y-118604761D01*
X109852380Y-118652380D01*
X109661904Y-118652380D01*
X109566666Y-118604761D01*
X109471428Y-118509523D01*
X109423809Y-118319047D01*
X109423809Y-117985714D01*
X109471428Y-117795238D01*
X109566666Y-117700000D01*
X109661904Y-117652380D01*
X110519047Y-117652380D02*
X110519047Y-118461904D01*
X110566666Y-118557142D01*
X110614285Y-118604761D01*
X110709523Y-118652380D01*
X110900000Y-118652380D01*
X110995238Y-118604761D01*
X111042857Y-118557142D01*
X111090476Y-118461904D01*
X111090476Y-117652380D01*
X111423809Y-117652380D02*
X111995238Y-117652380D01*
X111709523Y-118652380D02*
X111709523Y-117652380D01*
X108223809Y-126428571D02*
X108366666Y-126476190D01*
X108414285Y-126523809D01*
X108461904Y-126619047D01*
X108461904Y-126761904D01*
X108414285Y-126857142D01*
X108366666Y-126904761D01*
X108271428Y-126952380D01*
X107890476Y-126952380D01*
X107890476Y-125952380D01*
X108223809Y-125952380D01*
X108319047Y-126000000D01*
X108366666Y-126047619D01*
X108414285Y-126142857D01*
X108414285Y-126238095D01*
X108366666Y-126333333D01*
X108319047Y-126380952D01*
X108223809Y-126428571D01*
X107890476Y-126428571D01*
X109414285Y-126952380D02*
X108842857Y-126952380D01*
X109128571Y-126952380D02*
X109128571Y-125952380D01*
X109033333Y-126095238D01*
X108938095Y-126190476D01*
X108842857Y-126238095D01*
X109842857Y-126952380D02*
X109842857Y-125952380D01*
X110414285Y-126952380D02*
X109985714Y-126380952D01*
X110414285Y-125952380D02*
X109842857Y-126523809D01*
X111604761Y-126952380D02*
X111604761Y-125952380D01*
X112080952Y-126952380D02*
X112080952Y-125952380D01*
X112652380Y-126952380D01*
X112652380Y-125952380D01*
X113747619Y-125952380D02*
X114080952Y-126952380D01*
X114414285Y-125952380D01*
X114700000Y-126666666D02*
X115176190Y-126666666D01*
X114604761Y-126952380D02*
X114938095Y-125952380D01*
X115271428Y-126952380D01*
X116080952Y-126952380D02*
X115604761Y-126952380D01*
X115604761Y-125952380D01*
X117223809Y-126952380D02*
X117414285Y-126952380D01*
X117509523Y-126904761D01*
X117557142Y-126857142D01*
X117652380Y-126714285D01*
X117700000Y-126523809D01*
X117700000Y-126142857D01*
X117652380Y-126047619D01*
X117604761Y-126000000D01*
X117509523Y-125952380D01*
X117319047Y-125952380D01*
X117223809Y-126000000D01*
X117176190Y-126047619D01*
X117128571Y-126142857D01*
X117128571Y-126380952D01*
X117176190Y-126476190D01*
X117223809Y-126523809D01*
X117319047Y-126571428D01*
X117509523Y-126571428D01*
X117604761Y-126523809D01*
X117652380Y-126476190D01*
X117700000Y-126380952D01*
X117985714Y-125952380D02*
X118319047Y-126952380D01*
X118652380Y-125952380D01*
X86223809Y-102900000D02*
X86128571Y-102852380D01*
X85985714Y-102852380D01*
X85842857Y-102900000D01*
X85747619Y-102995238D01*
X85700000Y-103090476D01*
X85652380Y-103280952D01*
X85652380Y-103423809D01*
X85700000Y-103614285D01*
X85747619Y-103709523D01*
X85842857Y-103804761D01*
X85985714Y-103852380D01*
X86080952Y-103852380D01*
X86223809Y-103804761D01*
X86271428Y-103757142D01*
X86271428Y-103423809D01*
X86080952Y-103423809D01*
X86700000Y-103852380D02*
X86700000Y-102852380D01*
X87271428Y-103852380D01*
X87271428Y-102852380D01*
X87747619Y-103852380D02*
X87747619Y-102852380D01*
X87985714Y-102852380D01*
X88128571Y-102900000D01*
X88223809Y-102995238D01*
X88271428Y-103090476D01*
X88319047Y-103280952D01*
X88319047Y-103423809D01*
X88271428Y-103614285D01*
X88223809Y-103709523D01*
X88128571Y-103804761D01*
X87985714Y-103852380D01*
X87747619Y-103852380D01*
X89557142Y-103852380D02*
X89747619Y-103852380D01*
X89842857Y-103804761D01*
X89890476Y-103757142D01*
X89985714Y-103614285D01*
X90033333Y-103423809D01*
X90033333Y-103042857D01*
X89985714Y-102947619D01*
X89938095Y-102900000D01*
X89842857Y-102852380D01*
X89652380Y-102852380D01*
X89557142Y-102900000D01*
X89509523Y-102947619D01*
X89461904Y-103042857D01*
X89461904Y-103280952D01*
X89509523Y-103376190D01*
X89557142Y-103423809D01*
X89652380Y-103471428D01*
X89842857Y-103471428D01*
X89938095Y-103423809D01*
X89985714Y-103376190D01*
X90033333Y-103280952D01*
X90319047Y-102852380D02*
X90652380Y-103852380D01*
X90985714Y-102852380D01*
X92557142Y-103852380D02*
X92080952Y-103852380D01*
X92080952Y-102852380D01*
X92890476Y-103328571D02*
X93223809Y-103328571D01*
X93366666Y-103852380D02*
X92890476Y-103852380D01*
X92890476Y-102852380D01*
X93366666Y-102852380D01*
X93795238Y-103852380D02*
X93795238Y-102852380D01*
X94033333Y-102852380D01*
X94176190Y-102900000D01*
X94271428Y-102995238D01*
X94319047Y-103090476D01*
X94366666Y-103280952D01*
X94366666Y-103423809D01*
X94319047Y-103614285D01*
X94271428Y-103709523D01*
X94176190Y-103804761D01*
X94033333Y-103852380D01*
X93795238Y-103852380D01*
X95890476Y-103328571D02*
X95557142Y-103328571D01*
X95557142Y-103852380D02*
X95557142Y-102852380D01*
X96033333Y-102852380D01*
X96414285Y-103471428D02*
X97176190Y-103471428D01*
X97652380Y-103852380D02*
X97652380Y-102852380D01*
X98128571Y-103852380D02*
X98128571Y-102852380D01*
X98700000Y-103852380D01*
X98700000Y-102852380D01*
D12*
X91880000Y-114470000D02*
X91880000Y-114140000D01*
X85340000Y-114470000D02*
X91880000Y-114470000D01*
X85340000Y-114140000D02*
X85340000Y-114470000D01*
X91880000Y-111730000D02*
X91880000Y-112060000D01*
X85340000Y-111730000D02*
X91880000Y-111730000D01*
X85340000Y-112060000D02*
X85340000Y-111730000D01*
X104750000Y-110850000D02*
X104750000Y-112100000D01*
X106000000Y-110850000D02*
X104750000Y-110850000D01*
X111900000Y-116350000D02*
X108850000Y-116350000D01*
X111900000Y-113400000D02*
X111900000Y-116350000D01*
X112650000Y-113400000D02*
X111900000Y-113400000D01*
X105800000Y-116350000D02*
X108850000Y-116350000D01*
X105800000Y-113400000D02*
X105800000Y-116350000D01*
X105050000Y-113400000D02*
X105800000Y-113400000D01*
X112650000Y-111150000D02*
X110850000Y-111150000D01*
X112650000Y-111900000D02*
X112650000Y-111150000D01*
X110850000Y-111900000D02*
X112650000Y-111900000D01*
X110850000Y-111150000D02*
X110850000Y-111900000D01*
X106850000Y-111150000D02*
X105050000Y-111150000D01*
X106850000Y-111900000D02*
X106850000Y-111150000D01*
X105050000Y-111900000D02*
X106850000Y-111900000D01*
X105050000Y-111150000D02*
X105050000Y-111900000D01*
X109350000Y-111150000D02*
X108350000Y-111150000D01*
X109350000Y-111900000D02*
X109350000Y-111150000D01*
X108350000Y-111900000D02*
X109350000Y-111900000D01*
X108350000Y-111150000D02*
X108350000Y-111900000D01*
X112660000Y-111140000D02*
X105040000Y-111140000D01*
X112660000Y-117110000D02*
X112660000Y-111140000D01*
X105040000Y-117110000D02*
X112660000Y-117110000D01*
X105040000Y-111140000D02*
X105040000Y-117110000D01*
X85550000Y-104250000D02*
X85550000Y-105500000D01*
X86800000Y-104250000D02*
X85550000Y-104250000D01*
X97700000Y-109750000D02*
X92150000Y-109750000D01*
X97700000Y-106800000D02*
X97700000Y-109750000D01*
X98450000Y-106800000D02*
X97700000Y-106800000D01*
X86600000Y-109750000D02*
X92150000Y-109750000D01*
X86600000Y-106800000D02*
X86600000Y-109750000D01*
X85850000Y-106800000D02*
X86600000Y-106800000D01*
X98450000Y-104550000D02*
X96650000Y-104550000D01*
X98450000Y-105300000D02*
X98450000Y-104550000D01*
X96650000Y-105300000D02*
X98450000Y-105300000D01*
X96650000Y-104550000D02*
X96650000Y-105300000D01*
X87650000Y-104550000D02*
X85850000Y-104550000D01*
X87650000Y-105300000D02*
X87650000Y-104550000D01*
X85850000Y-105300000D02*
X87650000Y-105300000D01*
X85850000Y-104550000D02*
X85850000Y-105300000D01*
X95150000Y-104550000D02*
X89150000Y-104550000D01*
X95150000Y-105300000D02*
X95150000Y-104550000D01*
X89150000Y-105300000D02*
X95150000Y-105300000D01*
X89150000Y-104550000D02*
X89150000Y-105300000D01*
X98460000Y-104540000D02*
X85840000Y-104540000D01*
X98460000Y-110510000D02*
X98460000Y-104540000D01*
X85840000Y-110510000D02*
X98460000Y-110510000D01*
X85840000Y-104540000D02*
X85840000Y-110510000D01*
X125620000Y-114000000D02*
G75*
G03X125620000Y-114000000I-2620000J0D01*
G01*
X118080000Y-107370000D02*
X118080000Y-107040000D01*
X111540000Y-107370000D02*
X118080000Y-107370000D01*
X111540000Y-107040000D02*
X111540000Y-107370000D01*
X118080000Y-104630000D02*
X118080000Y-104960000D01*
X111540000Y-104630000D02*
X118080000Y-104630000D01*
X111540000Y-104960000D02*
X111540000Y-104630000D01*
X102120000Y-109370000D02*
X108960000Y-109370000D01*
X102120000Y-104430000D02*
X108960000Y-104430000D01*
X108960000Y-106250000D02*
X108960000Y-104430000D01*
X108960000Y-109370000D02*
X108960000Y-107550000D01*
X102120000Y-106250000D02*
X102120000Y-104430000D01*
X102120000Y-109370000D02*
X102120000Y-107550000D01*
X106880000Y-120530000D02*
X100040000Y-120530000D01*
X106880000Y-125470000D02*
X100040000Y-125470000D01*
X100040000Y-123650000D02*
X100040000Y-125470000D01*
X100040000Y-120530000D02*
X100040000Y-122350000D01*
X106880000Y-123650000D02*
X106880000Y-125470000D01*
X106880000Y-120530000D02*
X106880000Y-122350000D01*
X97579000Y-113680000D02*
X96321000Y-113680000D01*
X97579000Y-115520000D02*
X96321000Y-115520000D01*
X80121000Y-117920000D02*
X81379000Y-117920000D01*
X80121000Y-116080000D02*
X81379000Y-116080000D01*
X97370000Y-118920000D02*
X97040000Y-118920000D01*
X97370000Y-125460000D02*
X97370000Y-118920000D01*
X97040000Y-125460000D02*
X97370000Y-125460000D01*
X94630000Y-118920000D02*
X94960000Y-118920000D01*
X94630000Y-125460000D02*
X94630000Y-118920000D01*
X94960000Y-125460000D02*
X94630000Y-125460000D01*
X90838478Y-122291522D02*
G75*
G03X86400000Y-124130000I-1838478J-1838478D01*
G01*
X90838478Y-125968478D02*
G75*
G02X86400000Y-124130000I-1838478J1838478D01*
G01*
X90850000Y-125930000D02*
X90850000Y-122330000D01*
X86461522Y-119908478D02*
G75*
G03X90900000Y-118070000I1838478J1838478D01*
G01*
X86461522Y-116231522D02*
G75*
G02X90900000Y-118070000I1838478J-1838478D01*
G01*
X86450000Y-116270000D02*
X86450000Y-119870000D01*
X109150000Y-119050000D02*
X109150000Y-120300000D01*
X110400000Y-119050000D02*
X109150000Y-119050000D01*
X118800000Y-124550000D02*
X114500000Y-124550000D01*
X118800000Y-121600000D02*
X118800000Y-124550000D01*
X119550000Y-121600000D02*
X118800000Y-121600000D01*
X110200000Y-124550000D02*
X114500000Y-124550000D01*
X110200000Y-121600000D02*
X110200000Y-124550000D01*
X109450000Y-121600000D02*
X110200000Y-121600000D01*
X119550000Y-119350000D02*
X117750000Y-119350000D01*
X119550000Y-120100000D02*
X119550000Y-119350000D01*
X117750000Y-120100000D02*
X119550000Y-120100000D01*
X117750000Y-119350000D02*
X117750000Y-120100000D01*
X111250000Y-119350000D02*
X109450000Y-119350000D01*
X111250000Y-120100000D02*
X111250000Y-119350000D01*
X109450000Y-120100000D02*
X111250000Y-120100000D01*
X109450000Y-119350000D02*
X109450000Y-120100000D01*
X116250000Y-119350000D02*
X112750000Y-119350000D01*
X116250000Y-120100000D02*
X116250000Y-119350000D01*
X112750000Y-120100000D02*
X116250000Y-120100000D01*
X112750000Y-119350000D02*
X112750000Y-120100000D01*
X119560000Y-119340000D02*
X109440000Y-119340000D01*
X119560000Y-125310000D02*
X119560000Y-119340000D01*
X109440000Y-125310000D02*
X119560000Y-125310000D01*
X109440000Y-119340000D02*
X109440000Y-125310000D01*
X117879000Y-109080000D02*
X116621000Y-109080000D01*
X117879000Y-110920000D02*
X116621000Y-110920000D01*
X81379000Y-112080000D02*
X80121000Y-112080000D01*
X81379000Y-113920000D02*
X80121000Y-113920000D01*
D10*
X94433333Y-112752380D02*
X94100000Y-112276190D01*
X93861904Y-112752380D02*
X93861904Y-111752380D01*
X94242857Y-111752380D01*
X94338095Y-111800000D01*
X94385714Y-111847619D01*
X94433333Y-111942857D01*
X94433333Y-112085714D01*
X94385714Y-112180952D01*
X94338095Y-112228571D01*
X94242857Y-112276190D01*
X93861904Y-112276190D01*
X94766666Y-111752380D02*
X95385714Y-111752380D01*
X95052380Y-112133333D01*
X95195238Y-112133333D01*
X95290476Y-112180952D01*
X95338095Y-112228571D01*
X95385714Y-112323809D01*
X95385714Y-112561904D01*
X95338095Y-112657142D01*
X95290476Y-112704761D01*
X95195238Y-112752380D01*
X94909523Y-112752380D01*
X94814285Y-112704761D01*
X94766666Y-112657142D01*
X110966666Y-109502380D02*
X110966666Y-110216666D01*
X110919047Y-110359523D01*
X110823809Y-110454761D01*
X110680952Y-110502380D01*
X110585714Y-110502380D01*
X111966666Y-110502380D02*
X111395238Y-110502380D01*
X111680952Y-110502380D02*
X111680952Y-109502380D01*
X111585714Y-109645238D01*
X111490476Y-109740476D01*
X111395238Y-109788095D01*
X90866666Y-114852380D02*
X90866666Y-115566666D01*
X90819047Y-115709523D01*
X90723809Y-115804761D01*
X90580952Y-115852380D01*
X90485714Y-115852380D01*
X91295238Y-114947619D02*
X91342857Y-114900000D01*
X91438095Y-114852380D01*
X91676190Y-114852380D01*
X91771428Y-114900000D01*
X91819047Y-114947619D01*
X91866666Y-115042857D01*
X91866666Y-115138095D01*
X91819047Y-115280952D01*
X91247619Y-115852380D01*
X91866666Y-115852380D01*
X125338095Y-120652380D02*
X125338095Y-119652380D01*
X125338095Y-120128571D02*
X125909523Y-120128571D01*
X125909523Y-120652380D02*
X125909523Y-119652380D01*
X126814285Y-119985714D02*
X126814285Y-120652380D01*
X126576190Y-119604761D02*
X126338095Y-120319047D01*
X126957142Y-120319047D01*
X125538095Y-110352380D02*
X125538095Y-109352380D01*
X125538095Y-109828571D02*
X126109523Y-109828571D01*
X126109523Y-110352380D02*
X126109523Y-109352380D01*
X126490476Y-109352380D02*
X127109523Y-109352380D01*
X126776190Y-109733333D01*
X126919047Y-109733333D01*
X127014285Y-109780952D01*
X127061904Y-109828571D01*
X127109523Y-109923809D01*
X127109523Y-110161904D01*
X127061904Y-110257142D01*
X127014285Y-110304761D01*
X126919047Y-110352380D01*
X126633333Y-110352380D01*
X126538095Y-110304761D01*
X126490476Y-110257142D01*
X78238095Y-110252380D02*
X78238095Y-109252380D01*
X78238095Y-109728571D02*
X78809523Y-109728571D01*
X78809523Y-110252380D02*
X78809523Y-109252380D01*
X79238095Y-109347619D02*
X79285714Y-109300000D01*
X79380952Y-109252380D01*
X79619047Y-109252380D01*
X79714285Y-109300000D01*
X79761904Y-109347619D01*
X79809523Y-109442857D01*
X79809523Y-109538095D01*
X79761904Y-109680952D01*
X79190476Y-110252380D01*
X79809523Y-110252380D01*
X78038095Y-120752380D02*
X78038095Y-119752380D01*
X78038095Y-120228571D02*
X78609523Y-120228571D01*
X78609523Y-120752380D02*
X78609523Y-119752380D01*
X79609523Y-120752380D02*
X79038095Y-120752380D01*
X79323809Y-120752380D02*
X79323809Y-119752380D01*
X79228571Y-119895238D01*
X79133333Y-119990476D01*
X79038095Y-120038095D01*
X127157142Y-114466666D02*
X127204761Y-114514285D01*
X127252380Y-114657142D01*
X127252380Y-114752380D01*
X127204761Y-114895238D01*
X127109523Y-114990476D01*
X127014285Y-115038095D01*
X126823809Y-115085714D01*
X126680952Y-115085714D01*
X126490476Y-115038095D01*
X126395238Y-114990476D01*
X126300000Y-114895238D01*
X126252380Y-114752380D01*
X126252380Y-114657142D01*
X126300000Y-114514285D01*
X126347619Y-114466666D01*
X126347619Y-114085714D02*
X126300000Y-114038095D01*
X126252380Y-113942857D01*
X126252380Y-113704761D01*
X126300000Y-113609523D01*
X126347619Y-113561904D01*
X126442857Y-113514285D01*
X126538095Y-113514285D01*
X126680952Y-113561904D01*
X127252380Y-114133333D01*
X127252380Y-113514285D01*
X114643333Y-104082380D02*
X114310000Y-103606190D01*
X114071904Y-104082380D02*
X114071904Y-103082380D01*
X114452857Y-103082380D01*
X114548095Y-103130000D01*
X114595714Y-103177619D01*
X114643333Y-103272857D01*
X114643333Y-103415714D01*
X114595714Y-103510952D01*
X114548095Y-103558571D01*
X114452857Y-103606190D01*
X114071904Y-103606190D01*
X115595714Y-104082380D02*
X115024285Y-104082380D01*
X115310000Y-104082380D02*
X115310000Y-103082380D01*
X115214761Y-103225238D01*
X115119523Y-103320476D01*
X115024285Y-103368095D01*
X101442380Y-107495238D02*
X100966190Y-107828571D01*
X101442380Y-108066666D02*
X100442380Y-108066666D01*
X100442380Y-107685714D01*
X100490000Y-107590476D01*
X100537619Y-107542857D01*
X100632857Y-107495238D01*
X100775714Y-107495238D01*
X100870952Y-107542857D01*
X100918571Y-107590476D01*
X100966190Y-107685714D01*
X100966190Y-108066666D01*
X100442380Y-107209523D02*
X101442380Y-106876190D01*
X100442380Y-106542857D01*
X100537619Y-106257142D02*
X100490000Y-106209523D01*
X100442380Y-106114285D01*
X100442380Y-105876190D01*
X100490000Y-105780952D01*
X100537619Y-105733333D01*
X100632857Y-105685714D01*
X100728095Y-105685714D01*
X100870952Y-105733333D01*
X101442380Y-106304761D01*
X101442380Y-105685714D01*
X108462380Y-123595238D02*
X107986190Y-123928571D01*
X108462380Y-124166666D02*
X107462380Y-124166666D01*
X107462380Y-123785714D01*
X107510000Y-123690476D01*
X107557619Y-123642857D01*
X107652857Y-123595238D01*
X107795714Y-123595238D01*
X107890952Y-123642857D01*
X107938571Y-123690476D01*
X107986190Y-123785714D01*
X107986190Y-124166666D01*
X107462380Y-123309523D02*
X108462380Y-122976190D01*
X107462380Y-122642857D01*
X108462380Y-121785714D02*
X108462380Y-122357142D01*
X108462380Y-122071428D02*
X107462380Y-122071428D01*
X107605238Y-122166666D01*
X107700476Y-122261904D01*
X107748095Y-122357142D01*
X96307142Y-117007142D02*
X96259523Y-117054761D01*
X96116666Y-117102380D01*
X96021428Y-117102380D01*
X95878571Y-117054761D01*
X95783333Y-116959523D01*
X95735714Y-116864285D01*
X95688095Y-116673809D01*
X95688095Y-116530952D01*
X95735714Y-116340476D01*
X95783333Y-116245238D01*
X95878571Y-116150000D01*
X96021428Y-116102380D01*
X96116666Y-116102380D01*
X96259523Y-116150000D01*
X96307142Y-116197619D01*
X96688095Y-116197619D02*
X96735714Y-116150000D01*
X96830952Y-116102380D01*
X97069047Y-116102380D01*
X97164285Y-116150000D01*
X97211904Y-116197619D01*
X97259523Y-116292857D01*
X97259523Y-116388095D01*
X97211904Y-116530952D01*
X96640476Y-117102380D01*
X97259523Y-117102380D01*
X98211904Y-117102380D02*
X97640476Y-117102380D01*
X97926190Y-117102380D02*
X97926190Y-116102380D01*
X97830952Y-116245238D01*
X97735714Y-116340476D01*
X97640476Y-116388095D01*
X80257142Y-115307142D02*
X80209523Y-115354761D01*
X80066666Y-115402380D01*
X79971428Y-115402380D01*
X79828571Y-115354761D01*
X79733333Y-115259523D01*
X79685714Y-115164285D01*
X79638095Y-114973809D01*
X79638095Y-114830952D01*
X79685714Y-114640476D01*
X79733333Y-114545238D01*
X79828571Y-114450000D01*
X79971428Y-114402380D01*
X80066666Y-114402380D01*
X80209523Y-114450000D01*
X80257142Y-114497619D01*
X80638095Y-114497619D02*
X80685714Y-114450000D01*
X80780952Y-114402380D01*
X81019047Y-114402380D01*
X81114285Y-114450000D01*
X81161904Y-114497619D01*
X81209523Y-114592857D01*
X81209523Y-114688095D01*
X81161904Y-114830952D01*
X80590476Y-115402380D01*
X81209523Y-115402380D01*
X81828571Y-114402380D02*
X81923809Y-114402380D01*
X82019047Y-114450000D01*
X82066666Y-114497619D01*
X82114285Y-114592857D01*
X82161904Y-114783333D01*
X82161904Y-115021428D01*
X82114285Y-115211904D01*
X82066666Y-115307142D01*
X82019047Y-115354761D01*
X81923809Y-115402380D01*
X81828571Y-115402380D01*
X81733333Y-115354761D01*
X81685714Y-115307142D01*
X81638095Y-115211904D01*
X81590476Y-115021428D01*
X81590476Y-114783333D01*
X81638095Y-114592857D01*
X81685714Y-114497619D01*
X81733333Y-114450000D01*
X81828571Y-114402380D01*
X94082380Y-122356666D02*
X93606190Y-122690000D01*
X94082380Y-122928095D02*
X93082380Y-122928095D01*
X93082380Y-122547142D01*
X93130000Y-122451904D01*
X93177619Y-122404285D01*
X93272857Y-122356666D01*
X93415714Y-122356666D01*
X93510952Y-122404285D01*
X93558571Y-122451904D01*
X93606190Y-122547142D01*
X93606190Y-122928095D01*
X93177619Y-121975714D02*
X93130000Y-121928095D01*
X93082380Y-121832857D01*
X93082380Y-121594761D01*
X93130000Y-121499523D01*
X93177619Y-121451904D01*
X93272857Y-121404285D01*
X93368095Y-121404285D01*
X93510952Y-121451904D01*
X94082380Y-122023333D01*
X94082380Y-121404285D01*
X85987619Y-124225238D02*
X85940000Y-124320476D01*
X85844761Y-124415714D01*
X85701904Y-124558571D01*
X85654285Y-124653809D01*
X85654285Y-124749047D01*
X85892380Y-124701428D02*
X85844761Y-124796666D01*
X85749523Y-124891904D01*
X85559047Y-124939523D01*
X85225714Y-124939523D01*
X85035238Y-124891904D01*
X84940000Y-124796666D01*
X84892380Y-124701428D01*
X84892380Y-124510952D01*
X84940000Y-124415714D01*
X85035238Y-124320476D01*
X85225714Y-124272857D01*
X85559047Y-124272857D01*
X85749523Y-124320476D01*
X85844761Y-124415714D01*
X85892380Y-124510952D01*
X85892380Y-124701428D01*
X84987619Y-123891904D02*
X84940000Y-123844285D01*
X84892380Y-123749047D01*
X84892380Y-123510952D01*
X84940000Y-123415714D01*
X84987619Y-123368095D01*
X85082857Y-123320476D01*
X85178095Y-123320476D01*
X85320952Y-123368095D01*
X85892380Y-123939523D01*
X85892380Y-123320476D01*
X92407619Y-118165238D02*
X92360000Y-118260476D01*
X92264761Y-118355714D01*
X92121904Y-118498571D01*
X92074285Y-118593809D01*
X92074285Y-118689047D01*
X92312380Y-118641428D02*
X92264761Y-118736666D01*
X92169523Y-118831904D01*
X91979047Y-118879523D01*
X91645714Y-118879523D01*
X91455238Y-118831904D01*
X91360000Y-118736666D01*
X91312380Y-118641428D01*
X91312380Y-118450952D01*
X91360000Y-118355714D01*
X91455238Y-118260476D01*
X91645714Y-118212857D01*
X91979047Y-118212857D01*
X92169523Y-118260476D01*
X92264761Y-118355714D01*
X92312380Y-118450952D01*
X92312380Y-118641428D01*
X92312380Y-117260476D02*
X92312380Y-117831904D01*
X92312380Y-117546190D02*
X91312380Y-117546190D01*
X91455238Y-117641428D01*
X91550476Y-117736666D01*
X91598095Y-117831904D01*
X116966666Y-117702380D02*
X116966666Y-118416666D01*
X116919047Y-118559523D01*
X116823809Y-118654761D01*
X116680952Y-118702380D01*
X116585714Y-118702380D01*
X117347619Y-117702380D02*
X117966666Y-117702380D01*
X117633333Y-118083333D01*
X117776190Y-118083333D01*
X117871428Y-118130952D01*
X117919047Y-118178571D01*
X117966666Y-118273809D01*
X117966666Y-118511904D01*
X117919047Y-118607142D01*
X117871428Y-118654761D01*
X117776190Y-118702380D01*
X117490476Y-118702380D01*
X117395238Y-118654761D01*
X117347619Y-118607142D01*
X117083333Y-112407142D02*
X117035714Y-112454761D01*
X116892857Y-112502380D01*
X116797619Y-112502380D01*
X116654761Y-112454761D01*
X116559523Y-112359523D01*
X116511904Y-112264285D01*
X116464285Y-112073809D01*
X116464285Y-111930952D01*
X116511904Y-111740476D01*
X116559523Y-111645238D01*
X116654761Y-111550000D01*
X116797619Y-111502380D01*
X116892857Y-111502380D01*
X117035714Y-111550000D01*
X117083333Y-111597619D01*
X117416666Y-111502380D02*
X118035714Y-111502380D01*
X117702380Y-111883333D01*
X117845238Y-111883333D01*
X117940476Y-111930952D01*
X117988095Y-111978571D01*
X118035714Y-112073809D01*
X118035714Y-112311904D01*
X117988095Y-112407142D01*
X117940476Y-112454761D01*
X117845238Y-112502380D01*
X117559523Y-112502380D01*
X117464285Y-112454761D01*
X117416666Y-112407142D01*
X80833333Y-111457142D02*
X80785714Y-111504761D01*
X80642857Y-111552380D01*
X80547619Y-111552380D01*
X80404761Y-111504761D01*
X80309523Y-111409523D01*
X80261904Y-111314285D01*
X80214285Y-111123809D01*
X80214285Y-110980952D01*
X80261904Y-110790476D01*
X80309523Y-110695238D01*
X80404761Y-110600000D01*
X80547619Y-110552380D01*
X80642857Y-110552380D01*
X80785714Y-110600000D01*
X80833333Y-110647619D01*
X81785714Y-111552380D02*
X81214285Y-111552380D01*
X81500000Y-111552380D02*
X81500000Y-110552380D01*
X81404761Y-110695238D01*
X81309523Y-110790476D01*
X81214285Y-110838095D01*
M02*
